<mxfile host="Electron" modified="2024-02-16T06:18:35.748Z" agent="Mozilla/5.0 (Windows NT 10.0; Win64; x64) AppleWebKit/537.36 (KHTML, like Gecko) draw.io/21.2.8 Chrome/112.0.5615.165 Electron/24.2.0 Safari/537.36" etag="20-Q-PqklZiWUe7Zr2RJ" version="21.2.8" type="device">
  <diagram name="Page-1" id="2XWkQP5S-hDbL94sL5Vg">
    <mxGraphModel dx="2058" dy="1180" grid="1" gridSize="10" guides="1" tooltips="1" connect="1" arrows="1" fold="1" page="1" pageScale="1" pageWidth="3300" pageHeight="4681" background="#999999" math="0" shadow="0">
      <root>
        <mxCell id="0" />
        <mxCell id="1" parent="0" />
        <mxCell id="APLwThIm-aDqV8bCMrbt-1" value="Dynamic Models" style="rounded=0;whiteSpace=wrap;html=1;fontSize=25;fillColor=#dae8fc;strokeColor=#6c8ebf;" parent="1" vertex="1">
          <mxGeometry x="1298" y="140" width="650" height="60" as="geometry" />
        </mxCell>
        <mxCell id="4Z5qEM_D-8_wQx9NH0rQ-1" value="" style="shape=image;verticalLabelPosition=bottom;labelBackgroundColor=default;verticalAlign=top;aspect=fixed;imageAspect=0;image=data:image/png,iVBORw0KGgoAAAANSUhEUgAAAokAAAIKCAYAAABP89VXAAAAAXNSR0IArs4c6QAAAARnQU1BAACxjwv8YQUAAAAJcEhZcwAADsMAAA7DAcdvqGQAAKDCSURBVHhe7N0HYBPl/wbwJ0l3C7RQWvZo2SDIKiAgewsiS0DcinvjQPk5+AuKCwUc4AJFlA2CgiAoMmTIRhFKWVJa2kL3bpL/fS8XSNOkixba9Pnotcl7M5dyefK+d+/pWra6wQyz8j9yMytluTiYxrnCT5nHVcxaXNdhlddBxdixFeO9JKKyTKf9vqau+Uqvy6ssV4q9h65q1xZuZnUqXe5pLU+vlMkjXcuWrXLFwfzDofZI+WU3VTlXzFdzFTvBtfZfabgOe6iCvCn826PrJfdHUhl3XTa2XO2ha+6q9k6xZ3ad90R9JVd+qCxPc79G27Coa6GERPWR8tGRNx9aCy5PUsgPmMJN5VAxZ72KNV4n1/aFlr/9U1GUo3eGf0RlT+5jOznEnZSf67J3ir3S8vVelr2XaVmw+vPKD5XOSVDUQqJdQLSvPbT8r7F/XlZcxRYVc9aytw/yc+33z9UoX/v2euAeoook9wcY5VXsPXTtZyxX7LJTEZW9fZSrljD3D+2h5bGQh0pIbJmrhdm+9vDKU/tzEnM/yyWfUQW5ilmLz3YHFMF12dbropivtILsoIrzd0BEhXHlY/YaKvZKr8vWXnPXZ/cUb+bSW+WVkeojLRDaBkeRa1zzFi0tn3G5QqDyyPK/+jh3hrJ/7kiBEzhXzFmvYo1XoaK8zoqiHO3dcvaHwL/b0nHlsO7irssLrTB795or9p69qrfk2r+fZfF1qmPtagulVPtl/XF5OktItAuIl0Og8sDN3R2+vj7wcPeAh6cHDAZDqR7xbbeEHChXu+fabyz/eojoerN8zF5r12etxVKONvV60CJb6VAWbTQakZmZiaysbKSlpSEnO1spt6zTGhqtP3XNm7ewqRjMHRArVaqEKv5VcDE+FemZ2cjIzEF2jlGbgByz7Fwiqojsv6bYHg/K81eY8rbt13J7XXVdVo7Xmd8nnXWOkvs0vB6v23W5u7nBy9NdGTwQWLUKEhISkZyUpLxhlncsV1BspoRE9ZHyJlgDopyXGBgYqJQYEBWbhKzsHMsIKqSS+6dBRGWBHBwL8++6In2YlafXWprbei33w/XY547Xmd+/BuscJfdJeD1ed8Xg4e6GGtWrws2gQ0xMrFaqvHfqm6eDXn2mvAGWgCi/zahcqZLyyIAz5y8xIBIRFRq/IJZNfF+IHJGMd/Z8DHKMltZjy8XLVzKhXh5dCYiWakhpYpYaRLKSA0xRDjLqDiUil1GUf/9FPV4QEV1f0bGX4F+lipoBbTOh3hpnLIWAr5+veg4iaxAd4cGfiAqLxwoiKh8k88XFJ8LH10d9bs2Eekta1J4pv+UqZrlIxfUV5gDuLBRay+0HW9b4TURERFS2ZWRmqRnQmhAlG+ovZxnliTyUbm7kKmbXZg10jsKdlbPy/NgurzjzExFR6Sjvx+TyVfHAT8DyJyMzG56enpa/NC0o6po0baY8unJeYoP6DfD3iSh1pDOVK3nD3c2gPSs86T4nKTlde3Y98c+XiK6F8vXBXjTl8bWVxjZfi/1wPfd17nUX5tNT5ijZT9nr+forlhaN6uP0mdPKI516hbMaEq3NzfK7QYP6+OdEtPrcmZnvvonQRqHaM8esN4uOjI6zBlKkJl3Es89PgV5f9IBZ8hgUiag0VbQPtvLwektrG0vztV/v/Xpl/dfvU7M8/G25huaN6uH06TM2XeDYBMTC8q9SCS2bNc53aNG0kTr069EZ/XtahuqB1Yq0nuKTV+dssOIfHRGVBjm2uPLxxdnrsz2+Usng51RJmfraFJwJ/xvnTv7rcJBxMk1Zs33zetzUKUx7lpeM27ZpnfaspFhbl5V/1U2aNFUfW8NbYWoSv/lyNurUCcWqreHQ6c2WwSCDCYPbNEKN4CpISUlVp/X19cXy7afUxw0rpWHCPQ/DYHBTn9s7svcPBAT4a8+A+PgEtGp/s/assApzoJLXWrgD2prl36rb1K33UK0kfzJ9wwb1lO3uoZVc8fW8j9C/b0/UDmmjlRTekb1bcP/Dz2DXnn1aSV6y7oOH/8aU19/WSpy7/57xmPrqi9oziw2//o57Jz6lPSOiouOHetneB6W1beVtuUVxZRuu39eAq98PEgL7Db4V0RditJLcqiqf81t+XYf6jVtqJWWDhMDZH76LJ55+Hjt27dZKLfIbV1yWmkRrc/PlzrSLRu4rqNMZcCoxBaeTk3EmLQn/ZSbiXHYCsrNNSuBUBu0/K4NH4W7nN+L2e5QQ1Vod9uw9gMiTh9CpYzttbEkp/J/60JF3FjogWkmofPP1l7RnV3Rsf6P2qGw4dfqsGlitg2zfts1rtLFEVHSsTSMqiwwGgxoQk5KSHA6nz5xVpylrJPxJCJQwaFujWBoB0ZFihUSjyaT+rl7NEzqPHCTmJCE24yIupFtu6aKzC/1eARnwCUzTnhXevROfVGu3prz0rFaSHzk4l40D9L79h9Dz5q7aMwupuZNQVpZJ7ad/lcrqthJRcZWdY9H1waBMJaks1KZeX/ZB8VoFRFGskGh9y45eOIdTCVFIyIlHOpKRpUtRy83aMUJqHIWvfwp8/Czjimrbjl1qzdzX82Zh2+a1WqmF1DIKKZeau8iTB9VBml2tpJnWWm5bSybltvNIbaWMl8cyzkqaiGWwsk4jg225LWnylbBlWwN6713jsGpN7vMGJIxZlyWDbe2j7Tjb1yNkubbzOapplW1zNn9+JMhKc7mw3z4rWZ7tvpPHtuuz3R6Z1louA1HF4SwsSbmrBylXf310bTAgWtkGxWsVEEUxm5st0pVQ6O6dDXevbLh5ZsFdGVTK+2oNiKJZ9bpo5B+iPSuaI38fVQOX1Cpaw4t48/XJai2jdWuGDx10udm0XdvWl4OK1I5Zy4VtLZnU9km5LGfF4q/x9Tffq88TEpNyBTYrCYjhJ05eXl5+5+9JU/nDD96tPrZuy5fzF6m/hZTJOYEjbr/3yvKUICnbZz9OQqftuZqyrdZ5ZJr3Z7yhjbGQ+aXp2DqNNJkXVtzFS6hdq6a6jGeeeOjyMl6dOiNX2JRttZbLYyHPLTW/z6jPJTjKdluXIfvXNoATVTwMT1T+nTt5tFBD8Uk4ZEAsC7Tb8mlvhly8UoT3RQ2HyuDuKYNNSFSOg7aLaRQQqg7F0aplczW0CWnGlXAoJOB99vl89bGYOXuu9shSG9aqZTP1sW2Nl23IFM+9+Jr6W2orZR5riFODoBKU7Mn8hb2wQ6aTi1SEhKbf/9iuPrYaOqS/+npsL0SRgNXtpk55xsmFKHIRj7CGXOtrksBo/7qs8xXn/MLAalUReT5K3QYJeNb1SGi1XY8EPmHdZ9b9Yq35FY0bhVyeTlgvqLGGZiLXJ6HQdiAq/+qENC/UQCXHtonZtum5xEl4UwOc5EG548pVsARESzj0kN8elpBouVLaGhPNyMrORnp6hva8aKSGUEKbHGDffHumGg47dWyvjtu1Z7/62xkJiNbaQhmu9TmBllD7klqzWZgrjoUENCE1es7I67C+JutgT2pQJaBJwCtKc7Ns65qfNqiPZftt1+Hoiu3iyO8KbaKKg6Hx2uM+p/LH/hxE+3MUS1PxQqLy7ywzMx2dAkPRIaAx2lVught9m6O1d0u13DKJ5R+j5EWTyXT5YpeiWLN8Ya7au8s1aw5q5pyx1sBJ7ZV9jVtRSThzdh6iI3IOojTFWprFc5MgZtssLqTmUcplPdZaSCFB01o7JzV38jpsm82dkWmlObqwr1sCpWyr7GdH21dUEu6tTdFCXoe1VpioYrN+iZbjpHUgotJiNBrVbm6cqVEjWJ2mrHF2kcq1CopOQmL+ByzJe82b1sVDvfrioR798WD3QXig+zDc3/VWNGtaBz4+vggKqo6q1arC3cNdDYl6vbNl5j5Arlg8Xwkrh9RB2NdeSTgsbM2cTCPTSvj58rOZV12TKF3hyLl+1ibYggKjhDRZ52efL9BKrpAgJufzSXOxdXnyXMplPglr1vI2N7S8HHaFTCfNv9bx9jWFEuys42T5tk3xtiQ8WqeTQT2/0CaQS02k7fYVJSALWZZst3V+qRUuandCRK6JoZDoWlqw8Hu1H0RHHWnLsGvrZnWaskT6KXxn+ht5AqKVNSi++9ZUraTk6Ro3aSoNz2qNn/xo0KAB/onIvzPtp5+YiLY3ttae5aXX69VBUrntHVYOHTyCd2fOgf5yZ9rODpQyj+NxUhsl5wtawwwRkeu4crws/8rqaymN7Sqt11oW9uGVbbh2X23K6t/OtSdB8drcqc6ieajWmbbyZqt9YjsPifLn4HjD1M6yTdJhdtHIEnVKeNTppAKzeH9uhbnzCBFR+XftPhhKT1l7DaW1PeVtuVc4+yS2rDn3+ov3qV0cpf+6yTH7kFjAOYmO/yQk5EltoNxez2BwL2CwTuemzmMJiEUnNYjSZCldyzAgEhERFY58kjsbnMlvHFUcBTQ32/+ZOEr3/FMiIip5rlKbUpZeR2ltS9lebnE/pW1vrSuu3ad9WfqbqViKWJNoT/5EbP9Mrt2fDBERUdkiYYaBhlxX8dp+84RFIiIqGa4WPMrSZ0XF+9ziJzVdjWKGRCIqPUX9ElbU6e1d7fxEVBbxXzVdLSUkXjkfkZXmRGVJUcPb1X4k8CPl+nPFo7Dta7L+TfNvrTSVzB4251oG37GKQ/0Xq/yQ305qEkvmT4yIisrRv7vC/nssbsCQ+awDUWni31j5cOV9Yhqo2NjcTHTdWQ/DBR2KnU3DgEdEJYHHEsqNIZHouilu6LPO52heR4oyrSP5rc92XHHGF0dJLqss4YczERWH9TOjJIbcdI2bNLHc8UU7J7FhgwbYuHGDOtIZozkTkUm7EZm8G7GpfyM9Jw6p2XEwmjK1KYiIiIjoejDoPeHrHghvt0BU922J2pXCULtyGAw6T20Kx/r1649Tp09bvobr1NvyFT4k5pjScTRuuTKsgEkJhDV8bkCwbytUdq8JLzd/ZWP8tSmJiIiI6HpIz0lAhjIkZUfhQuoRRKcdhl4Jjs0DRyjDSLjpvbUpcyt2SDybuBV7o+bCqATFxv791IGIiIiIyr7whI3qYFACYvuaD6Fele7amCvsQ2Khzkn8J3YpNp96GUFejdGv3hsMiERERETliGQ3yXBBXk3w2+lXcDRumTbGuQJDoixkV+SHuLH6WLQNmgB3J1WURERERFR2SYZrG3QH2gTejp3nZqqVgPnJNyRKE/PuyFloW308mgQM1EqJiIiIqLySTCfZTjKeZD1nnIZEuUhFzkFsVKUvAyIRERGRC5Fs19i/r5r1JPM54jQkylXMcpFKq8ARWgkRERERuYpWgSPVrCeZzxG9pe9E632b1cuc1X4QpZsbOcmR5yASERERuR7JeJL1JPNJ9lPToNbbjeRBhzWJ0lG29IPIq5iJiIiIXJdkPcl8kv3sOQ6JybvVjrKJiIiIyLVJ5pPsZ89hSJRb7cmdVIiIiIjItUnmk+xnz2FIlHsxy632iIiIiMi1SeaT7GfPYUhMzY5T78VMRERERK5NMp9kP3sOQ6LRlAlvhkQiIiIilyeZT7KfPYchkYjoWjGbjDAajTBZ+lwgIqIygiGRiK6f7HDMHtIZwbUG4rG1eZs6ygpTVjoSL0QiIuIczscmIDndqPUjRkTkuhgSiSh/KXsxtV831GtwC55ed0krLDnGzAykpyQjJVsrKCuyYrD989cxrF0nBAe3Qe2QHmjduicaN+iAmsFt0eSmx/HRnhRtYiIi18OQSEQFMCE1Lg4X4+KRbNJpZa7NGPUHXhkwCAOfXohNxy4h270KaoaEomnjOqhZ1RsGUxrOH/kHp1K1GYiIXJBebTLR2k3Mym82oRBRhZZ9CvMfex6zdidCV70zXlyyHqcidyP88C/Yd+B3nPjvAM4fW4FvXuiNBl48YhKRa7Ee1SQTsiaRiMhG2qHV+OqPizAZ6uPerz7Gq0NCEeBuW4NqgG/t1hg5ZQqe7lxJKyMicj0MiURENlL/O43odEBXsy36t66ilRIRVTwMiURUMjJjsGfpPEy66x707XYLwjqPQL/hz2HKvC0ITzJpE+XDbIYZ2Yj5axVev/9e9L1pCDp1n4C7Ji/C1sgsbSIbWZHYNO8TvPXWZ/h6R6wybxaidq3Aa/fdi37K+rv0uBv3vroce2JztBkKR+9mgF6nbE78WYQXZd6S2p4i7cc0/LPya7w741PMWhWuPHMg8QgWf/gJZny4EnsdXXeUcgwrZinjZy7B1vNGrZCISPmy3KhxE+XILAdnOUab0bBhA9w+4xLuaLbEMgURVWwpe/Bi9zsxJ7waxi5eiy+HBGgjrEy4uH0uHrhvNjaey7Kcz6LTK99ATZf7PnSr1g5PfDkHr/cLgpulyCI7HDMHjMCUXb4YNmc2xkW8jyc/3ou4bGURypKs8+sDOuKVFZ/jpTA/S4G4PK8Phnz4Ecafeh9PfLwfl4x2667dGzNWfISHW3lbCgpgOrsUo7u+jPWX9Kg17P/w8/wxaOypjczPVW9PcfajGee+ewg3TdyM1DaPY8Omp9HebrEJG1/GTSOW4IyuLu5fuRqz+lTWxlik7XkfvQd8imMN78faLZPR1WYXE1HF8d2/Y7D4xao4deo0dDrLKTasSSSiq5K0czZGjXwfG87lICDsLsxdvw7/nj2AqP+24q+fp+H+dlVgurgPMyc8guk7k7W57BkRv+kzvPx9Mnr/3wLsi9iLqMjt2PnN/QgLUGJS/B7MfHkRjtjfEEANTyYkbfkMk+YnYcC7i3Dw1D5EnduKHfPvRfsqeuREbsabk1cgvJBd7OjrDcO0/3VHdZ0R53+cgh49J2PBgQQUqk7xKranePtRh5pdeqJNFSAjYhe2n7HfymQc/GUPIqUC0ngBu7acRO4LsnNw9s89OJVpQN3uN6MVAyIR2WBIJKLiSz2Amc99jt3JbggZ9x62rH8VE7o3Rt2qPvALqInmPW7HrA2L8cGAatClHMQnry7BUbuWY7mCDojH1nXn0PfjBfji8ZvQJLgy/KoE44aRL+DbD/ojWPlSm3JoIzZE5E5Wlgo2Zd6fozB0wff4fGIYGlX3g59/TbQZPRmLPuiLIGXe+N1rsC6isE3Hnmj2wAdYPK036nmYkHhoKR7t3gPtR83Ej8dTlQjoXLG3x3Y/ji3afjTU64yBrX2VHRSO33ZG596+lGP4ZUskKt1wM8Jq5eD0tl04Zbv/TRewZ8sJpOiD0XlAS/AMTCKyxZBIRMV2adtiLD6cAV1Qb7zy+i0IcdQs690I454fhVZeQPLeVVimTJ+XDtX7Pozn+gfaHZQMqNNnBPrVNQBpkTgSYd95tcQyHWoMfhyT+lRVHtnSo86AMRhUT5k39SwOhDurxXRA749OT32K7ZvfwsQu1eFhSsWJdR9jXFgv9Hr0e+yNdxYVi7c9ufbjG0Xcj2510aNfY/giEQc3HUKspVSVdnQLNkfoUK9DZ7Sr64WUf//EznM25x1ePILNhxKV9bbFoPa8Xz8R5caQSETFlI4T2w8hSskc1ToNxM21nR9O/Fr3Qu8GbkDGeew9HOegNs4TDcJaINjRIvyCUa+qMq85C0lJmVptnYVOjWFeqNu2CYIczetdDbX8LfMmp+Set2AGVG07GjM3bsa+Vc9jVMvKMGRfwl8L/of+3Z7ApweS8yyveNtztfvRHY16dUdjLzMu7t+OQ/FqoSITxzdtR4S5HnqMGIghnevBM/EoNv118fJ2Jx3Zgb8uKOtt3xMdq2uFREQa50cjIqJ8peH8mXhkKyEluGl9BOSuNsvNKwghtXyUBxmIi0pW5rnCcn60D2rVDYCHWmLHzQ/VKivBSGEy2cVL67z1ApStcMC9CoIDLEs15jir/SuAzhsN+z2EBX/+jm2fjkGbKnpknP4FL459BUtO210NXKztufr96NW0O3qFeiDn3D5sPqpd45x1Gr//egI5DbpiUMd6aNevPeq5JeDApiOwXOScjn+37EOksRLaDOiAmvmtl4gqJIZEIsqf2QijenmtHgbpG8bKnInkZKkN08PDyz3/g4nBC1UqSWwyITsjy0FNorLcsh5SDJXR+q7p+HXDK+gfpIfxv3WY/MrPiCpa9WReJbEffZug/8214ZZ9Dju2nYFc35N9egfWH85CvZ690KYS4N+6B8JqAtF7/sQ/0tKtTLtz+1lk+jVF/+61YFAXRER0hd7a/Y3l7HFluNoDHhG5lowExCYrcUQCip9N/ZjOGwEBnkq2y0JMRBTszxbMJSsB56Klhssd/tUrOa5lKyd8Wo3FGw/fAB/lYBmz5w/sv9y8W0wlsh/90HpgGOoY0nH8979wNseIs1u24HBaMG4aqF2QUrUV+raviuwzu/H78XQYzx/A70dT4deyB3rUZ0QkIoUlEGqZkDWJRFSAnIRoXEhVDhjeNRBa00srFZUQ2rquGpYST4bjvKPrUaxSInE8OhNwC0ar1tVz95VY7niiTptGqKYcPc1ZaUh10M930ZTMfvRv2wtdauiRfGQb9pz5D1s3/IPkWh0x2HpBii4QYf1bICDjNLZt/w+R+7bjUIInQnt2QWhh+oEkogqHIZGI8pGDiPW/4ECKXFzbER1r29Y4uaFh7164wU/JLnu+wVsrI+H4fh1Z+GfhF1h1xgSP0O4YKm2fZVhKZCQuOX4hmgz8d+AELpoA94BaqHHVfQuW0H6s1gaDOwcCl45g40+/YPWeRAR36YMwpchCj9pduqGFXxqO/vYHNsiV0G510KNPIyWgEhHlxZBIRDaMyMiw9t9nRsrh7/G/2fuQjMroMHYwbrC7m4dXyxF4ang9uJtisPalZ/HqT+fU8+GuyMTJVTPw8Iw9SNIHof8zd6Nrme6Mz4SLm97FrUMnY9b6cMRl2p09aUzGv8vfxiMzDyINXmh+62C0K4EOqEtmPwYibGArVDUnInzbHvyb4I8Og9oiSBsr3OuFoXczLyRF7MUfR2KBep3Rr5WvNpaIKDeGRCK6whyNJQ/fhi49x6Ffl55ocvNU/BRpgn+3iZh+T6O8Vx8rgWXYjHfxYrcAmOP24sOxg9AybDzGPz4dLz72KAaG9ULnOxdgb6If2j/5DubcUb/Mn4+oMyUiYstSTB45CA1rhaFF2EgMGHIX+ncdiBYNu6DjXQtxMMWA4N5P4+NJbVEiEatE9qMOtW7qg7b+Gdj/0+/4r3IbDO4SlPt6IK+G6NG9HvQRG7F8TxZqdemBG9mDNhE5wZBIRDZ00KVewJE9e7DjUCQSjb5oOvIVrPphovMaM//2mLx6BZZMGYAW/jmI/ns3Vn/9FebM34Ct/8TDLbQXXli0AuundUN1B0ccg6cnPH38YHtNjD2Dlze8ZJpcKVUHD29veMo4p9dd6ODuo4yXdRTq2gw9ArtPwFO3t0OIdFWTkYAzfx/Ett93YPuBEzhzKQd+9Tvg7vcXYvvyB+z2yVVuz1XuR6GvE4ZBHarCy90TNTr3Rdc8fS76oHnfzghRdraHT010HdQaVbUxRET2dI0aNbZcw6Je5WxGwwYNMf69VNwaMhvebuyBn6iiMWUkIur0GZxL8URwSEPUr+qhRJtCMqYj7uxZnIlOQrZnFQTVqYv6Qd75dq9iNhphVA5COoMBBicrcjaNtVyvlNv2zmPLbJIufJR59cq8RflabMpCcuwF/BcZg0vpbgioEYzg6gEIqOzp9PWU2PYUYz9epixf7YJRr4ebw40ww6RMoE7ipmynpZCIKrD0nASsPvkEFk3yxanTp5RjvnLs0Ck/HYXEBz/yRreaTyHAq4E6MxERERG5pnjp9SDqI3z+VHqukOjwS6S3WyCSsqO0Z0RERETkqiTzSfaz5zAkVvdtiQupR7RnREREROSqJPNJ9rPnMCTWrhSG6LTD2jMiIiIiclWS+ST72XMcEiuHQa/3RHjCRq2EiIiIiFyNZD3JfJL97F0OiZaLV9SHMOg80TxwhDpjtindUkhERERELkMynmQ9yXyS/VRKFtTioOOaRNE8cCQMem8ciVuulRARERGRqzgSt0LNepL5HHEaEt2UmdrXfEhJmL/iePx6rZSIiIiIyjvJdicSf1WznmQ+R5yGRFGvSneE1X4S+2MXMSgSERERuQDJdJLtJONJ1nMm35AoWlQfjc51nsHBuMXYH/Mdz1EkIiIiKockw+2PWYgDsT+gU+2n0TxwlDbGsQJDopCF9GowDTEZx7Hx7Gu86pmIiIioHJHsJhkuJiMcvRtOVysBC3L5tnxm+akMDRs2xK+/Og6BOUoCPRq3XBlWwGTKRA2fGxDs2wqV3WvCy82f93omIiIius7kXswZyiB3UpGOsqUfROnmRq5ilotUnJ2D2LdvP5w6dcpy32bbezcXJiRaGc2ZiEzajcjk3YhN/VvZmDikZsfBqARHIiIiIrp+DEog9HUPVG+1J3dSkY6ypR/Ey93cOGEfEgvV3ExEREREFQubm4mIiIhcyDVvbj6buBV7o+bCqATFxv791IGIiIiIyj65cEUG6Txb+kZ01PVNnuZmCYhKOtQGx/6JXYrNp15GkFdj9Kv3BgMiERERUTki2U0yXJBXE/x2+hUcjVumjcntci40mws+J1EWsivyQ9xYfSzaBk2Au5MqSiIiIiIquyTDtQ26A20Cb8fOczPVSsD85BsSpYl5d+QstK0+Hk0CBmqlRERERFReSaaTbCcZT7KeM05DolykIucgNqrSlwGRiIiIyIVItmvs31fNepL5HHEaEuUqZrlIpVXgCK2EiIiIiFxFq8CRataTzOeIw5AonWVLNzdykiPPQSQiIiJyPZLxJOtJ5pPsZ89hSJS7qUg/iLyKmYiIiMh1SdaTzCfZz57jkJi8W+0om4iIiIhcm2Q+yX72HIZEuR+z3EmFiIiIiFybZD7JfvYchsT0nDj1VntERERE5Nok80n2s+cwJKZmx6n3YiYiIiIi1yaZT7KfPYch0WjKhDdDIhEREZHLk8wn2c+eGhLN2q2bzdp/RERmkxFGoxGm63BIuJ7rvt7K22uvyO8VkauxZEBlsPzvuCaRiMqjJBz+/j08/NhsrDzuuPf8QssOx+whnRFcayAeW5u3CaJUXV73ADy8OkYrvFoluG9K0/Xc78VRKu8VEZUVDIlE100m9r0zDo3rdkDdel3QbdIfiCuwNiYbh2fdg2b1OqPTw+tw3mZ6c+RvmD55Lr6dPxuT39mOWK28uIyZGUhPSUZKtlZwDZX0uou/b6zvURd0eXwjorXS0nQ993txlLftJaLCY0gkup4yUhB3KQGXLsZi/9dv492tidoI53QZyYi7GIfzF3OfP6ILugEDutZBpSr1cVO/FqimldNV7hv1PYrF+UsZWkFu5oyLOPr7NhxJ0gqIiFwEQyJRGeDh5wuvjOP46qV52F7csOEegnu+24TI/zbgq9tr8R+3rVLaNzknlmBs624Iu2shDqUUWA1MRFSu8HOE6LrTo1afURjU0A1pB7/Fy7MOIkUbU3R6GAw67THlVvL7Rod0JCZmw2Q2aSVERK6DIZHoujMjy9ACE1/oi9qGNPw1Zxo+3V+GL66gy9SeIaxYkUhELoYhkei6U0Ki0QNNxr2A/w2qDn3yPsycvAhHHJ8C51xOBNZ++AnefvtjfP1nglbogDEF4Zt+wBsPT8SgXsMQ1nkE+g17As/P2oCDsQ6uPlCSkBnZiPlrFV6//170vWkIOnWfgLuUbdwamaVN5ERmDPYsnYdJd92Dvt1usaxr+HOYMm8LwpOKX/uWfSkcGz5/Dw+PHo+bOw9B51734I5H3sHcLVHI29OXorD7plDMiN36Hd56azbe/upPRMsuy47Cxs/mqGVvvfUpvt4Rhzyv7hrud1NSBNZ/PA13Dh6JTh2G4OaBj+KZD9bjSLxRm8JGViQ2zftE2e7PlO2Olb9GRO1agdfuuxf9lPesS4+7ce+ry7EnNkebofCMF/bi248+xbvvfobZ3+9FlP3LdPr38cdV/X0QUcnQhTZqbFZoByQzGjZsiLHvxOOOZku0SYiodGRi39RR6DPjKCrfOhO7Fg1F1fAfMK7/q1gfWxl93l+MpQ+FwlOb2iIbR94Zi55vHIT34Pewa8lw1LK2oGYfxwf9R+B/u/1w2zdrsHBkdW3EFRkn1uCFu1/H/AOJUOOCTg+Dzgyj2smdss5Zq7Hq/rrQZ4dj5oARmLLLF8PmzMa4iPfx5Md7Ead8yOuU44S1Tzx9QEe8suJzvBTmZym4zISL2+figftmY+O5LGUOhbIuvVJundetWjs88eUcvN4vCG6WIovL6/bBrfPXYNHoIG2EyMbRL5/GmJc24GSaLEgHnUEPnUnrp0/vi+Z3Tsfyj4agvrs6g0Uh9o1jed+jGsqei5h7D7o++yeStaly80X3d1bhp8cawqCVXLv9bkTsbx/ijnvmYXucrEkHvV4Hk8kSuAyBnfHK4o/xQucqyhiNzf4e8uFHGH/qfTzx8X5cMtq9X7V7Y8aKj/BwK29LgcjvvUo6gLdHPYA3tyfCp+V4fLXqVdxSy7pHruLvg4hKxXf/jsEPLwTg1KlTcmRV/k0qxw9tHBGVAR6NR2DaizehGhKw+e0ZWHSiiLU32gesI9knV+LBIZPw5YEkeDcdgjdXrMPJ6EO4ELUHx/9agJkPdEAtL23iy4yI3/QZXv4+Gb3/bwH2RexFVOR27PzmfoQFKB/p8Xsw8+VFOGJXfZe0czZGjXwfG87lICDsLsxdvw7/nj2AqP+24q+fp+H+dlVgurgPMyc8guk7HUctZ7LjLyK5SiuMe2MOfjuyG9ExhxB9diNWvNwNNfSpOPrtW3j9J6kRs5PPvikaA4J7P4Gvls7Dojl3oK2PUhTQAU99+gmWKmVLl87Ey/2qXw6I13K/J++agzHjPsX2i55oervyZePAn4i6sA+n9n6OKf1qwBC3E2/d/yZWR9nV0qn7xoSkLZ9h0vwkDHh3EQ6e2oeoc1uxY/69aF9Fj5zIzXhz8gqEO6j0zCP9BD6//1FM354Az8Yj8cnS/9kExNL9+yCiksOQSFSmeKDZ3ZPxfPcqMMf8jmmvrsUZBy2ERZZzGguenoaV50zw7/o01vz+IZ4Z0BjBfl7w9vNH7eZdMfGjefhkXJ3LBwXL+Xbx2LruHPp+vABfPH4TmgRXhl+VYNww8gV8+0F/BCtfNlMObcSGCJvkkHoAM5/7HLuT3RAy7j1sWf8qJnRvjLpVfeAXUBPNe9yOWRsW44MB1aBLOYhPXl2CowW0Wl+hg2/HiVizZzm+mDQQYQ0D4OflCd+qDTFg8nRMGxwInekCtv14ABe1OUqDX+MwDB7cG7d0D4Gf7DBdZbTq208tk+HmJloN37Xc72mHMeeFL5T97oVWT8zFpi/vQvfGgfDz8UNQs16YvOhTvBTmi+zT6/Hht//C9mwGS35W1vlzFIYu+B6fTwxDo+p+8POviTajJ2PRB30RpKwzfvcarIso4ItL9jksffIhvPhzDAwNbsGsZVMxqr5NXWCp/n0QUUnSa0cky0HC8pCIrifvprj/7YnoWsWEqLXv47WV0bjas7NSdi/GvG0JMPt1wIsfTkRY5cuNjblI02RuOlTv+zCe6x9o943SgDp9RqBfXYMSTiJxJOLK9diXti3G4sMZ0AX1xiuv34KQ3O3lFt6NMO75UWjlBSTvXYVlyvSF44bQHr1xQ4CD77f6YHTq3RSVlANZ0tkzahPt9XZN9/vWRfh2fzrcGg7FG5O6IMB+kT6tMOGBTqiKdBz9dRfO5Mp6cvDXocbgxzGpT1VpaLKhR50BYzConrLO1LM4EO6kZk9ZhNkUh42vPILHFp2Bqe4AvL/8bdzRyEObwKJ0/z6I6GqpZyBqjx0caYnoevNpcyfeerItKhmjsOqND/Hzhav5BpeFk1t34VQm4N/lNtzazPZkvYJ4okFYCwQ7OlL4BaNeVTflaJKFpKRM7aCSjhPbDyHKCFTrNBA313Z+iPFr3Qu9GyjzZ5zH3sMOLvQoDFMOUuMvIPzAbqxbshjL9qeoB7WctFSklUQN7FW5tvs9fJvsdx2CbuyIUM9MZGTYDZkZ0FeriWrKrGlnj+GUTdZTzz+CF+q2bYIgR+v0roZa/pZ1JqdY15mbMT0aW95+HPd8chSZNXph+tL3cF8z+3b0a/z3QURXxfm/UCK6jnzQ/vFX8Hh7H2SfXI0pb24pxC37nEnF2eMXlI9nN9Rs1RjVC/mvXqdWJ/mgVt0A5K4L0rj5oVpl5UNcYb0wQokfOH8mHtlwR3DT+nlrs2x5BSGklpzQl4G4qGRlnkIyK4Fo7Wd47LZhaFb3RtSq1w03dh2PUfe+itcXHIR67bLWQnJ9Xdv9HnX2khJLzYhaPRkdardGcLDdEHQjmo35HnKaqykjBcm2TbjWddYLUN45B9yrIDjAsjXGHEdxzYi4n2bg/hl/ITnwJry+5EM8eoPNBS6XXYO/DyIqMQyJRGWV3414asZduNEnG+GLZmDG78XsusWcgcREqf0xwNvP6/IFFYWjfIrn90Fuz5yJ5GRZlx4eXu75H2AMXqhSSSKJCdkZWYWrKco6hW/vHYIuY9/D/F8jkFatKfqOvRuT35qOb1YtwvpZQ1BTtteStK6va7rfs5CaKjFKB9/gBmjatJHjoVljtGjZFC2aVIO39TLiEpGFS+cuIFGasPVucHNzsvGl/fdBRCWKIZGoDKvUZSLefqAZvDPC8fVLn2FrkhnmouYfnScqVfJQ4kMWLpw4fxV3cykEnTcCAjzVdcVEROW/rqwEnItOUx64w796Jcc1WLkYcXrpDLy27CyyavbGO79vx8lDy7H88ymY8uQYjOwXhubVixbFStU13e/WdelQte9LWL/rJ+ze7XzYs+EN3KKm6ZLijUYTXsbbo+tAf+EPTBn9LL446uA8wlL9+yCiksaQSFSmVUb3F17GfS08kX7kO0x+exsuGjyLWCvlh4Ytaiof42Yknj6BaIe9TZeUSghtXRc+sq6T4Tif3/UGKZE4LhvjFoxWrasXoi+8RBzedBgxZg+0mPAY7mvvbzdPjhI8/oOSo1E2mpuv5X73Q4Pmsi4TLp08hZgi9pxUEtwDW+L+jz/FtH6BMEX+iudHvYiF4fYvujT/PoiopDEkEpV1AV3w4vRRaOyRjv1ffopFJzKL+IHpgZCe3dDEW/nc3bUAb66IROld0+GGhr174QY/ZV17vsH0lc7WlYV/Fn6BVWdM8AjtjqFtKmnl+ciJx+lzyUq8cEeVag5qltL+xZo1x5GqPLxWEVFncIebHEWz05Gcbt8gei33u7Kurh1Q30P2+2LM23q1d5UpBp0OOt/meHT+HLzUuTKyT/+Ep0ZNwZKTtmcT5v77eKsk/z6IqMQxJBKVeTpU6/sk3rqjAdxT9mPxkmNFbrr0bT8Ozw6tDTdTDH566VlMWX0Wue8ObULS35vw/R9RVx2wvFqOwFPD68FdW9erP52zu1VeJk6umoGHZ+xBkj4I/Z+5G12raKPy4xaIJqH+ykErFYdW/oz9tjshKwrrp0/HvMMZ6kHtWp2SqPevgdqVlTWmnsKfB/JegXst97tfx9G4t4uyI7Mi8O2zr2Pu3oQ8ASz70t9Y+Pp7WHqi9OKqzr8DXlr4Hia29EbGiZV4dNRrWPnflapN27+PtSX590FEJY4hkag80FXDgCkv4PaGbshJz0CRWxP1NTDi/XfwbGd/mOP2YtaEIWjZcRzGPvImJj/1NIb36IOm3SZjxZkSqINTPtiHzXgXL3YLUNf14dhBaBk2HuMfn44XH3sUA8N6ofOdC7A30Q/tn3wHc+6oX8jzzaqg670j0c5P7tjxEQZ1uB13P/s2Xnr0YfTtOBRjv8jEyMcsnT5LsL4m/FthcNcaMJiisezRcbjl3lcwceSduHfBSUtAu5b73aMRHvzoJQyv64a08LV4tk9ftO11P+579h28OnkKJgwcgMZNbsNDcw8hvpR3j6Fmb7z1/f9hTEN3pB9bgodGTsM66fdGlNrfBxGVNIZEoutI7+MDXw9v+PsV/DGor9EHr04dika+HvD09EYVB/Po3N3h4e0JDwchQFe1E15bswwLJ/VEY78sxPyzB2u+mY9ZX6zFxn1xqNy+N3o08rocrwyenvD08UN+m2bw8oaXTGPfV4t/e0xevQJLpgxAC/8cRP+9G6u//gpz5m/A1n/i4RbaCy8sWoH107o57BrGum5fu3X7hT2Mr+c9gJtreSDjv71YNvcLzF7wGw6b2uHlJbPwWBt/VPL2gJe3W56YmN++yU++75EuCINffw2PdQ2EW8pZbFmyGN9t+BdxNlVj13K/ezQeja83fYmpI5ogAImI2L0Fi+fOw/uzfsDKbf/BVL87nvpoCsY1tD2rVafsF294yjKdnuyqg7uPMl62zW4aZ9vrGTocc75/CYPqeiP75FpMeepTbInV6lqv8u+DiK4NXWhoI/UUb7PaxbYZDUMa4o730nBryGx4u/lbpiKi0mEyIttohs5ggFueu244YoYpxwhlFuj0yjwG23mUcUYTpGcTWV6uUfZy0hB9+gzOxWXA4F8dtWoFoXplj1zfGs1GbT35LKsw08CYjrizZ3EmOgnZnlUQVKcu6gd553vxTUHLNeekIz4qEicjU+FTox4a1guAt2y82YQcy84p/r6xZ32P8uxvG8ZMJMZE4WxUGjyC6qBh7cqOw+g13O/GlFicPh2FCwmZcK9UFTXr10Etf0+HNQPW5emV5Tn7MzQr+0HZhep+MNgspMD3ShsvHE5TjL8PIipZ6TkJWH3yCXw3yQcnT56CTs4xlsFRSJz4kQ+61XwKAV4NLHMTERERkUuKzziNbVEfYd5TablCot7yBU+NiepP+eHtFoik7Ch5RkREREQuTDKfZD9LEBTKA7N0e+9Add+WuJB6RHtGRERERK5KMp9kP3sOQ2LtSmGITjusPSMiIiIiVyWZT7KfPcchsXIY9HpPhCds1EqIiIiIyNVI1pPMJ9nPnsOQaNB5onngCHXGbFPurl+JiIiIqPyTjCdZTzKfZD97DkOiaB44Ega9N47ELddKiIiIiMhVHIlboWY9yXyOOA2JbspM7Ws+pCTMX3E8fr1WSkRERETlnWS7E4m/qllPMp8jTkOiqFelO8JqP4n9sYsYFImIiIhcgGQ6yXaS8STrOZNvSBQtqo9G5zrP4GDcYuyP+Y7nKBIRERGVQ5Lh9scsxIHYH9Cp9tNoHjhKG+NYgSFRyEJ6NZiGmIzj2Hj2NV71TERERFSOSHaTDBeTEY7eDaerlYAF0YWENpJutdXb8smd+UIaNsSmTb9qo3PLURLo0bjlyrACJlMmavjcgGDfVqjsXhNebv681zMRERHRdSb3Ys5QBrmTinSULf0gSjc3chWzXKTi7BzEPn364uQpuS2fEhDlPzUkSkBUg2L+IdHKaM5EZNJuRCbvRmzq38rGxCE1Ow5GJTgSERER0fVjUAKhr3ugeqs9uZOKdJQt/SA66ubGln1ILFRzMxERERFVLEWqSWRzMxEREVHZds2bm88mbsXeqLkwKkGxsX8/dSAiIiKisk8uXJFBOs+WvhEddX1TrObmf2KXYvOplxHk1Rj96r3BgEhERERUjkh2kwwX5NUEv51+BUfjlmljnCswJMpCdkV+iBurj0XboAlwd1JFSURERERll2S4tkF3oE3g7dh5bqZaCZiffEOiNDHvjpyFttXHo0nAQK2UiIiIiMoryXSS7STjSdZzxmlIlItU5BzERlX6MiASERERuRDJdo39+6pZTzKfI05DolzFLBeptAocoZUQERERkatoFThSzXqS+RxxGBKls2zp5kZOcuQ5iERERESuRzKeZD3JfJL97DkMiXI3FekHkVcxExEREbkuyXqS+ST72XMcEpN3qx1lExEREZFrk8wn2c+eEhKlG22F/JDetJUHcj9muZMKEREREbk2yXyS/dQwKFnQ8r/jmsT0nDj1VntERERE5Nok80n2s+cwJKZmx6n3YiYiIiIi1yaZT7KfPYch0WjKhDdDIhEREZHLk8wn2c+ew5BIRHQtmU1GGI1GmOQkGFJxnxDR9caQSER2knD4+/fw8GOzsfK44174S1R2OGYP6YzgWgPx2Nq8zR0VEvcJEZUBDIlE5U4m9r0zDo3rdkDdel1w88s7lVhXNKl/zUL/Rh2V+Tuj/b0rccqkjVCYI3/D9Mlz8e382Zj8znbEauWlyZiZgfSUZKRkawUlonT3U2krnX1CRFR4DIlE5VFGCuIuJeDSxVjsW/wdNkQVpU3yEn6buwx/RsUr88fhfFzu2kJd0A0Y0LUOKlWpj5v6tUA1rdyWOeMijv6+DUeKmrqutVLcT1er3OxDIqqwGBKJyi0D/Kr5wzN6Kz5fGoEsrbQgOSfWYe7PUfAKro7KOq3QlnsI7vluEyL/24Cvbq+V5yCRc2IJxrbuhrC7FuJQSnk4Ya6U9tNVKH/7kIgqIoZEonJLj5o3haGJZwr2fLMUu1O04nyl4a9vfsCOhEpo1K4+KmuleelhMDhORjqkIzExGybzNWx7vSqluZ+Kp/ztQyKqiBgSicotE/T+zdE2xAOZx9biy1/j1B7y82OO2Yp5i48ho3JLdG+mzFeMSiz1xkxW5aIS7Prsp/yUv31IRBWR3nKA0m7NR0TlSo6uPoaOboNKpgv4Zd46nMjRRjiUg/Bl32LdOaB23xG4pb67UuJATgTWfvgJ3n77Y3z9Z4JWaEbs1u/w1luz8fZXfyJaLqbIjsLGz+aoZW+99Sm+3hGnxDE7xhSEb/oBbzw8EYN6DUNY5xHoN+wJPD9rAw7GOrgiQ0lPZmQj5q9VeP3+e9H3piHo1H0C7pq8CFsjC9tQnFep7CdN9qVwbPj8PTw8ejxu7jwEnXvdgzseeQdzt0Qhd69jxdyHxdwnOYnhWPPhVNw3ajy6dxqK7n3vxh3Pfo6V++OUpTmQGYM9S+dh0l33oG+3Wyzv1fDnMGXeFoQnOanxzIrEpnmfKNv+mbLtscp2ZiFq1wq8dt+96Kcso0uPu3Hvq8uxJzbfHU5EZYw1E+pCQkLVQ5D6zVb5ERLSEGPfTcAdzZZYpiCiMiYT+6aOQp8Zx1Drvq+w9cVLeLLHJKxMaIrnfl6MqZ18tOnspOzBK73vxocnGuDJlfNxx8Gn0Wfybuh7T8WO1ePR0NqukH0cH/Qfgf/t9sNt36zBwpHVlUIjIubeg67P/olky1R2fNH9nVX46bGGMGglGSfW4IW7X8f8A4nK3AqdHgadGUa147/K6DNrNVbdXxf67HDMHDACU3b5Ytic2RgX8T6e/Hgv4pQko1OOTdZ+AvUBHfHKis/xUpifpaBApbyflKh19MunMealDTiZJhupg86gh86k9W2o90XzO6dj+UdDoORMRRH24VXtkxz8t/JV3DpxKY7Jdin7Xa/sd5M2U+DQ9/Hn97ei1uWzCUy4uH0uHrhvNjaey7J8OMg8Srl1PW7V2uGJL+fg9X5BcLMUWVzeTh8M+fAjjD/1Pp74eD8uGe3mr90bM1Z8hIdbeVsKiKjM+e7fMfjheX+cPHlKOQYoxzNlYHMzUTlmVj6FDXV6YeLIEHhkHMOSL/6E4171zLiw8Tss+ScLlcPG4J6bqsEz16e9He3D/QoDgns/ga+WzsOiOXegreSrgA546tNPsFQpW7p0Jl7uV/1yQMw+uRIPDpmELw8kwbvpELy5Yh1ORh/Chag9OP7XAsx8oANqeWkTX2ZE/KbP8PL3yej9fwuwL2IvoiK3Y+c39yMsQIkc8Xsw8+VFOJL3pgAFKq39lB1/EclVWmHcG3Pw25HdiI45hOizG7Hi5W6ooU/F0W/fwus/SQ2bKNo+tCj6PknZPQfjH16CY1k1MOC1L3HgzEHEXtiPM//+jLUf3YO+Ib5K0LwiaedsjBr5Pjacy0FA2F2Yu34d/j17AFH/bcVfP0/D/e2qwHRxH2ZOeATTdzqIt+qLMyFpy2eYND8JA95dhIOn9iHq3FbsmH8v2lfRIydyM96cvALhDqswiaisYkgkKvcqodPdo9Cxkgnn1i3EjyfVervcsk5g8We/4zyC0O/BwWjiLjVSRePXOAyDB/fGLd1D4CdHDl1ltOrbTy2T4eYmWm1WzmkseHoaVp4zwb/r01jz+4d4ZkBjBPt5wdvPH7Wbd8XEj+bhk3F1Lh+A1JYMxGPrunPo+/ECfPH4TWgSXBl+VYJxw8gX8O0H/RGsbHDKoY3YEFHcpFHS+0kH344TsWbPcnwxaSDCGgbAz8sTvlUbYsDk6Zg2OBA60wVs+/EALmpzFHofKoq3TzJwbN0mHEkBqvV/FrMm9UDjat7w8vFDYN0m6PXAFHw5vS9qWl9U6gHMfO5z7E52Q8i497Bl/auY0L0x6lb1gV9ATTTvcTtmbViMDwZUgy7lID55dQmO2rVwWwKwsp0/R2Hogu/x+cQwNKruBz//mmgzejIWfdAXQcr64nevwboINjsTlScMiUQuwLPFUDzYL0j5JP4LXy36G2lauVXSrsWYvysFns1uwcT+QUUOiEWRsnsx5m1LgNmvA178cCLCnPQfo9fbl+tQve/DeK5/oN2ByYA6fUagX10DkBaJIxGFujzZoZLdT24I7dEbNwQ4OIzqg9Gpd1MllpqRdPaM2kxcPEXfJxLaZLuNWZnItiQ4py5tW4zFhzOgC+qNV16/BSGe2ghb3o0w7vlRaOUFJO9dhWXK9LlZ1lhj8OOY1Keq3T7To86AMRhUT9nO1LM4EO64oZ2IyiaGRCJXoAvGgAcHo6lHOg5//z22XtLKhfkCfpn7E45n+6HjXaMRVkkrLxVZOLl1F05lAv5dbsOtzdST8QrJEw3CWiDY0VHJLxj1qropryULSUmZWu1VMZTmfjLlIDX+AsIP7Ma6JYuxbH+KeoDNSUtFmoNKy8Ip6j7xQt22TRGsFCds/gCP/N9mnEx1trfScWL7IUQp21at00DcXNv5x4Ff617o3UBZaMZ57D2c++IanRoLZb1NEORoEd7VUMvfsp3JKVfx3hHRNef8qEBE5UrlTrfj7k6VkHN6I+atPXf5gzzr6BrM2xgLXc2b8eDoRvDQyktHKs4ev6DEDzfUbNUY1Qt5hNGp1U8+qFU3wPH2ufmhWmUlaChMJidX2hZSie4nczrC136Gx24bhmZ1b0Stet1wY9fxGHXvq3h9wUGo14Zb2o2LrLj7JHjIC3j/wZaojEvY+u5EtG3UD8MmLcLWM+m5wp30BXn+TDyy4Y7gpvURkLsKMDevIITUkpMoMxAXlZz76mjrdtYLUJbkgHsVBAdYXoEx5+reOyK6thgSiVyFZyOMeqAbauoSsPXLVTik3kUuCdu/WIw9KW5odNt49L98MlopMWcgMVFqiwzw9vOyuwijIMq2lfLmqUpqP2Wdwrf3DkGXse9h/q8RSKvWFH3H3o3Jb03HN6sWYf2sIZZz/yxpr5iKsU8MQRj83hLsWj0Z49sHwpB8Gps+fRUDW3dHz6dX419ry7Q5E8nJ8l7p4eHlnv+HgcELVSpJBDQhOyPLLmwSkatiSCRyGTrUGnAnRjfzQOr+5fh8SzyM5zZj7orTyPZri3vubV/idw7JQ+eJSpU8lC3JwoUT51H8swdLU0nsJyNOL52B15adRVbN3njn9+04eWg5ln8+BVOeHIOR/cLQvHrRInLJ8kS93vfj8z+24cTuzzB1THMEIAF7P38Bwx5ehVNSFajzRkCAp/pexURE5f9eZSXgXLScwekO/+qVHNcYEpHLYUgkciWVbsRdd92IysZI/LLgF2xYsQJ/xAJBfcZhVPNr8dHuh4YtasIbZiSePoHoYnRXc01c9X5KxOFNhxFj9kCLCY/hvvb+ufsPRI4SvP5DkrQ0F7O5uWS4oWqLvnju6xXY/sVtCPUwIvKXb7HsmKTESghtXRc+8l6dDMd5++tRbKVE4ri8mW7BaNW6ut1rJSJXxZBI5FI80Gz0BAyoBUT//i1mfL0fie4hGPlQT9S+mlZPGzqDO9zkyJGdjuR0+4ZHD4T07IYm3kqu2LUAb66ItHSkXeZc5X7Kicfpc8lKvHJHlWoOatbS/sWaNceRqjx0FBHz34elwR31+9+KnrUNQHo0/j0t9YZuaNi7F27wU96rPd/grZXO3qss/LPwC6w6Y4JHaHcMbVOqVz4RURmiVw9g2g/Lf0RUnulqdsf9I0PhkXQMe46nw6/DCNzTueQamvX+NVC7spJwUk/hzwN5byPn234cnh1aG26mGPz00rOYsvos1NP+LjMh6e9N+P6PqOt6vLmq/eQWiCah/sq37FQcWvkz9tu21WZFYf306Zh3OEP9Fu7olMSC9mHxJWH7vM+w+GBCnlsJJh/fhyOxSgz0rYMbQiz9MXq1HIGnhteDu/JerVXeq1d/Omd3K8FMnFw1Aw/P2IMkfRD6P3M3ulbRRhGRy5FjsuW4bHkkxzAicimV0OmeMQiTvKMLRO8Hb0ULR/3fFZd/KwzuWgMGUzSWPToOt9z7CiaOvBP3LjhpqYnS18CI99/Bs539YY7bi1kThqBlx3EY+8ibmPzU0xjeow+adpuMFWeu91fSq9lPVdD13pFop2StpJ0fYVCH23H3s2/jpUcfRt+OQzH2i0yMfMzSibSycHWOXArah8VmRsq+RXigW3c06zgWI+97Ha/8bxoeGzcKHYfMwa7Uyuj8+CTcY21SV4LfsBnv4sVuAep79eHYQWgZNh7jH5+OFx97FAPDeqHznQuwN9EP7Z98B3PuqM/zEYkqEIZEonJI7+MDXw8fVK7k+OIIj6ZD8PDQBqjWahgeHljD8T90dw94unuism/eDlZ07u7w8PaEh6OmV10QBr/+Gh7rGgi3lLPYsmQxvtvwL+JsqqB0VTvhtTXLsHBSTzT2y0LMP3uw5pv5mPXFWmzcF4fK7XujRyOvy/HJ4OkJTx8/+OWTQAxeljuH+BWqbxqL0txPfmEP4+t5D+DmWh7I+G8vls39ArMX/IbDpnZ4ecksPNbGH5W8PeDl7ZY3JhZiHxZvn8g5iK3RopoJ0f/8hfWLF+LDD77G/B8PIz6oEybO+hpLX+kIf9sN8m+PyatXYMmUAWjhn4Pov3dj9ddfYc78Ddj6TzzcQnvhhUUrsH5aNwddGumUvxNveMp2OL1ORwd3H2W8vJ7reS0PERWZrmFIqFlOrFb/U36HhIRgwvvpuDVkNrzd/LXJiKhMMRmRbTRDZzDALc+dSzTKNDlK7HE63mxCjixDr4ch1zRmZVYTTGblAKEs3+BkdhgzkRgThbNRafAIqoOGtSs7DpU5aYg+fQbn4jJg8K+OWrWCUL2yR65AZjYaoWxKvusrzDR5lOp+sjDnpCM+KhInI1PhU6MeGtYLgLe8OG0+ZUa4OdvgfPbhVe0TU4ayTdGIjL6EVEMV1FT2eVC1SvkEOY0xHXFnz+JMdBKyPasgqE5d1A/yzrcrI+s26JVtcL4LlWlMsiuU7XSYxInoekrPScDqk09g4XPeOHnylHqajE754TAkPjTLF91qPoUArwba7ERERETkiuIzTmNb1EeY+2RqrpDo8Dudt1sgkrKjtGdERERE5Kok80n2s+cwJFb3bYkLqUe0Z0RERETkqiTzSfaz5zAk1q4Uhui0w9ozIiIiInJVkvkk+9lzHBIrh0Gv90R4wkathIiIiIhcjWQ9yXyS/ew5DIkGnSeaB45QZ8w25e4Gl4iIiIjKP8l4kvUk80n2s+cwJIrmgSNh0HvjSNxyrYSIiIiIXMWRuBVq1pPM54jTkOimzNS+5kNKwvwVx+PXa6VEREREVN5JtjuR+Kua9STzOaKGRPPlHza/FfWqdEdY7SexP3YRgyIRERGRC5BMJ9lOMp5kvcusgVD+VwanNYlWLaqPRuc6z+Bg3GLsj/mO5ygSERERlUOS4fbHLMSB2B/QqfbTaB44ShvjWIEhUchCejWYhpiM49h49jVe9UxERERUjkh2kwwXkxGO3g2nq5WABVFvyye347Pemi+kYQg2b96kjc4tR0mgR+OWK8MKmEyZqOFzA4J9W6Gye014ufnzXs9ERERE15ncizlDGeROKtJRtvSDKN3cyFXMcpGKs3MQe/fug5OnTkKn/Cf35itSSLQymjMRmbQbkcm7EZv6t7IxcUjNjoNRCY5EREREdP0YlEDo6x6o3mpP7qQiHWVLP4iOurmxZR8SC9XcTEREREQVC5ubiYiIiFzINW9uPpu4FXuj5sKoBMXG/v3UgYiIiIjKPrlwRQbpPFv6RszV9Y2mWM3N/8QuxeZTLyPIqzH61XuDAZGIiIioHJHsJhkuyKsJfjv9Co7GLdPGOFdgSJSF7Ir8EDdWH4u2QRPg7qSKkoiIiIjKLslwbYPuQJvA27Hz3Ey1EjA/+YZEaWLeHTkLbauPR5OAgVopEREREZVXkukk20nGk6znjBISzeoD9afloUouUpFzEBtV6cuASERERORCJNs19u+rZj3JfLascdBpTaJcxSwXqbQKHKGVEBEREZGraBU4Us16kvkccRgSpbNs6eZGTnLkOYhERERErkcynmQ9yXyS/ew5DIlyNxXpB5FXMRMRERG5Lsl6kvkk+9lzHBKTd6sdZRMRERGRa5PMJ9nPnsOQKPdjljupEBEREZFrk8wn2c+ew5CYnhOn3mqPiIiIiFybZD7JfvYchsTU7Dj1XsxERERE5Nok80n2s+cwJBpNmfBmSCQiIiJyeZL5JPvZcxgSiYgqCrPJCKPRCJPNzQSIiIghkYgqsuxwzB7SGcG1BuDh1TFaIRERCYZEonIpE/veGYfGdbugy+MbEa2V2ss6tQoTw25CgyYDMOiZ1QjP0EaUKdf3tRgzM5CekoyUbK2AiIhUetv7NVsess2FqFzISEHcpVicv+Q4LZnjd+H/7nwV3/0di5yGt2Lq1FvR2EsbWda40mshIirHzDYxkDWJRK4o4wS+nPgMPtqfBp+WE/DlNw+jYyVtXHnjSq+FiKgcYUgkcjWmOGyY8hQm/xwDfb3BmLloMgYEl9N/6q70WoiIyhkebYlcSjoOfzwJD849hoxqXfDqd29hQiMPbVx540qvhYio/GFIJHIZRkSunoo7X9uGOO/meOSLD/BUO19tnGOmpAis/3ga7hw8Ep06DMHNAx/FMx+sx5F4ozaFjaxIbJr3Cd566zN8vSMWZmQhatcKvHbfvejX7RZ06XE37n11OfbE5mgzXI2ivxZkxmDP0nmYdNc96KtsT1jnEeg3/DlMmbcF4UkmbaJiusplZ0bvxw9vvYzRA0agU8eh6D38Rby15Ahis42IWP813nlrDt79Zh8uOTslvDjrz47Ehk9mYfr0T/H51hiYzWkIX/MpHh97D4aNm4oFR9K1CTVFWYcpHru+m4d3ZnyCWavCkaYV55WD0xu/xXszPsZ7C/Yhjqe8E5UruoYNQ9RzFM3KTxlCQxpi3HuJuKPZEssURFQGZWLf1FHoM+MoKt86E7sWDYXvnjkYMfwj7EithRGz5+OLOxvCU5s6LyNif/sQd9wzD9vjJBDqoNfrYDJZwoAhsDNeWfwxXuhcRRmjyQ7HTCXkTNnlgyEffoTxp97HEx/vxyWjXvm2abrcz6Bb7d6YseIjPNzK21JQoKt9LSZc3D4XD9w3GxvPZVkuvdPZbVO1dnjiyzl4vV8Q3CxFFjav6db5a7BodJA2wuoqlq3KwokfpmDMkytxLNUyg06ZH2aTsiw31Oz3EF5quRuvfLgHnoPfxZ9LbkPtyztcXM1rO46Z/Udiym4f3DLnE9x17A3cN/sfpMg4t1A8uX4V3uoi71Fx1mHEiXn34eZntiO92b348fdX0N3ReaLphzG9/3hM2+eJ/h+vxLJ76sKgjSKisuW7f8fg+0n+iDh5UjlO6dSBNYlE5ZxOCRyp4cvxxF1zsCOxCm7+32x8mm+oApJ3zcGYcZ9i+0VPNL39Vaw/8CeiLuzDqb2fY0q/GjDE7cRb97+J1VF2NUhqaDAhactnmDQ/CQPeXYSDp/Yh6txW7Jh/L9pX0SMncjPenLwC4cXoUqY4ryVp52yMGvk+NpzLQUDYXZi7fh3+PXsAUf9txV8/T8P97arAdHEfZk54BNN3JmtzFc7VLvvir9Nx+2MrlIBoQK3+T+GHrZtxKuoAzoX/hOWv94DHtq8wZ0O0EiUdu9r1axkPmfu/wStfX0LHR1/FwrXfYdWnd6N9ZcvY4q3DgJCBw3BTNR2yIrbgx/2O92vq4V/w49/p0NfshjsH1WFAJCpnGBKJyrvkvXjn3v/DsrMeaP34TCx4pjX8tFEOpR3GnBe+wO5kL7R6Yi42fXkXujcOhJ+PH4Ka9cLkRZ/ipTBfZJ9ejw+//Re2ndJYYkU8tv4chaELvsfnE8PQqLof/Pxros3oyVj0QV8E6ZQpdq/BuohiNDsX9bWkHsDM5z5XXosbQsa9hy3rX8WE7o1Rt6oP/AJqonmP2zFrw2J8MKAadCkH8cmrS3DUWSKzd7XLTtmHD6csxb8Zbmh8z2z8tuQJDG1XD9Ur+cC/VlMMfP4T/Pr5QGQf/08NidZAd1mJvbYUHN4SibCZ32HZu3fhtl6d0G/8eIxq6XNV69DX7Y5xPapDl30Gv6w4iARLsY0U7FvxK45lGtBg0Ej0Cs5VRUpE5QBDIlE5l3joF6w5mAKzb31079McgQX8q760dRG+3Z8Ot4ZD8cakLgiw/+z2aYUJD3RCVaTj6K+7cCZX1pMoo0ONwY9jUp+qV5qiVXrUGTAGg+oZlPBxFgfCi1ZrJ4r8WrYtxuLDGdAF9cYrr9+CEEdVjt6NMO75UWjlJRl0FZYp0xfG1S47YddKrDqaCVTugAef6Ik67tqIywyoNexpTO4XoD3PrURem3oyUSaSKnXDg7fWh33Xkle1Dl0Qeo7rhjp6I85sWo898ZbiyxIPYuX608jybIzhd7SH41dJRGUZQyJROeff7g68MC4UXqlH8ekDz2L2AeeXEcgVw+HbDiHKqEPQjR0R6pmJjAy7ITMD+mo1Uc0NSDt7DKdssp5OjYVeqNu2CYIcHT28q6GWvzKjOQvJKZl5a8cKUNTXcmK7vBagWqeBuLm288OZX+te6N1A2a6M89h7OA4FX2pytcvOxMk/D+K8ErADugzHsKZ5EqKFoRqatQpWm9NzB+4Sem06Wao7GvbuiZZ5rvu5+nVU63orBoW4IefMNqzcnbsu8dKfa7A+Igd+7YZhbFsfrZSIyhPnRwUiKhdMPg1x+wcz8VqvqkDcDrxx12tYlrv6z0Yaos5eglyeELV6MjrUbo3gYLsh6EY0G/M9TiiLMGWkINm2CVNNMj6oVS9AiR4OuFdBcIClmxpjTsFRzF5RX8v5M/HIVrYkuGn9vDWitryCEFJLgkoG4qKSlXkKcrXLTsW5iDglKupRpXYNVHY6vzuqVK/sYF+W5GvzQlC9anlqEUtkHVXaYdzwxvA0nsfmZXsRpxUDF7FtyTb8Z/JH5/ED0cxRDSURlXmWkGi5vll9SETlj86vBR7/cgYeaO6FzIiVeOyO97HlooN/0+YspKbKR7wOvsEN0LRpI8dDs8Zo0bIpWjSpBm/rJa7XSOFfSyaSk6W2Ug8PL/f8v/EavFClkkQxE7IzsgquSbzaZZuzkZIiUdwDVWtXdRDQbJXea7PkPg9UqeKZdxklsg5vtB45CK19TIj842fsiLWUmqN2YMnvF4AaXXDnIF7RTFR+WI9Hym8lG+Z7XCCi8kMf3AvTv3kR/YP0SNn/Fe59cCH+tm+t1XmiUiUPJTzoULXvS1i/6yfs3u182LPhDdxSM78qptJRuNfijYAAT+WVZCEmIsrStYszWQk4Fy0LcId/9UoOau7sXO2ydXp4ernJSFyKvJTr4p/cspBwIUn5aac0X5tVCa3Dq/kAjG5fCabInVi5PU75aDHhv01r8McFPRoMHo0+1+Hvh4hKBkMikQvxbnEH5n1xF1r5GHHhl7dwx7Pr8V+u1lo/NGheE97KB/mlk6cQ46wltwwo+LVUQmjruvBRYkniyXCcz+96lJRIHI/OBNyC0ap1dQf9Gdq72mX7obbaJG9C/KkzULuidMSchIjjsWpIzF2fWJqvzaqE1uHeAINvb4sAcwz+WL4L0TnnsGn5Plz0bIRbx3fgBStE5RhDIpFL0aN6n+fxzdt9UNOQhfBvJ+Out/5CwuUE4oGQrh1Q30P53N+zGPO25u24pOywey0L7V+LGxr27oUb/OS1fIO3VkbCcRbLwj8Lv8CqMyZ4hHbH0DaOen22l3vZ04u8bG80uqkVaihH2MQd3+HzHY6v9E75azE+2XxJe2bratdfGCW1/wxo0P9WdA8CLmz7GZt3/I7luxLgd+NQ3M4LVojKNYZEIpfjiab3vY0vHm8JPyRj93tP45H5EZebPP06jsa9Xaoon/0R+PbZ1zF3b0KecJB96W8sfP09LD3hODZcOzavxZz3tXi1HIGnhteDuykGa196Fq/+dA6Z2jiLTJxcNQMPz9iDJH0Q+j9zN7oqL70wbJf9UzGWHdhjHG6/wVuZ7Di+enoavj+e+zZ4qeE/4uVnvkOkn796zp59o+zVrr8wSmr/6Wp3xx19akIX9zc2/rgD/yT5o9P4QWie/8mYRFTGMSQSuSJdAHq+NhMzhtWAIScaPz7/KF5Ye8ESBj0a4cGPXsLwum5IC1+LZ/v0Rdte9+O+Z9/Bq5OnYMLAAWjc5DY8NPcQ4svC6WSXX0tw3teiBJdhM97Fi90CYI7biw/HDkLLsPEY//h0vPjYoxgY1gud71yAvYl+aP/kO5hzR/3Cn7N3tcv2a4dJHzyITlV0SP13GSZ264NOQ57BpMlv4J5bhqJdt+ex2NQHj41uDIc3MCzN12ZVYuuoiu539EKIPhI/f7sDccGdceeQermbpYmo3GFIJCqn9D4+8PXwhr+fk2jgGYK7P/kAz3UOgGfOf1j2v6n4eI+l2dOj8Wh8velLTB3RBAFIRMTuLVg8dx7en/UDVm77D6b63fHUR1MwrqHtdak6eHh7w9PLG15OL1fVwd1HGe/pCc8iXNJauNcy0+FrgX97TF69AkumDEAL/xxE/70bq7/+CnPmb8DWf+LhFtoLLyxagfXTuqG6gyOeQbbVxw++jlZ9lcuu1PkJrPz5TdzTvhrc0mJw5Pc1+HTWt1i2LQqVB7yI1Wv+h/7BRpiV/eam7Ft3+1BeEq/Nww2G/ML+Va7DqkrHobj1Bj/kZAKNhvGCFSJXoGvYMMSsUA5Syn9mIDSkISZ8kIFbQ2bD281fm4yIyhyTEdlGJV7oDXDLLwWYTchRphM6vR4Gfe5pjSmxOH06ChcSMuFeqSpq1q+DWv4OukxRmI1GyKL0BgPsFnOZWdkuo0nWZVDWpRUWpIReC4zpiDt7Fmeik5DtWQVBdeqifpB3vl2wWF+TTnlN+YapYiz7CiNSzp9GRGQisryqok792qhR2V2JhunY/eooDHg/HLXu+wo7ZneD0xbjq3ht+b1fuVzVayzme09E1116TgJWn3wCC5/1QsTJU5B++KUXDIch8aHZfuhW8ykEeDXQZiciohKXcxpzh92GZ7fo0Puj1Vj1APsUJKJrLz7jNLZFfYS5T6TkCokOv+t5uwUiKTtKe0ZERKUhefdSLNidDPg1Rb+uNRgQiei6kMwn2c+ew5BY3bclLqQe0Z4REVGR5ZzDqg8+x5q/ExzcKs+IhL3fYOIDX+NgugF1h9yN0c2KfNkJEVGJkMwn2c+ew5BYu1IYotMOa8+IiKjIdFk4v+FjjO10E0Jaj8TQCS9j8hszMeW5Sbitaw806TkVP57JQZWOD2DuuwPA6zyI6HqRzCfZz57ecgq4Qn1geVa7chj0ek+EJ2xUnxMRURHp/NCif1/cVN8DSScPYvPKJZj1zseY+dkqbDgQg2z/prhtyqfY+vPz6FGNCZGIrg/JepL5JPtZUqDyUwuHugYNQ9QrVqwXr4SGhGDz5s04HLMQx+JWol+9N+Cud9iLFxERFcScg5S4C4g8fwFRF5Jg8glAjXr1EVrHH568ApiIrqNsUzo2nn0NTQNvww1BE9Crd2+cPHnScmWzzsmFK6J54EgYlHB4JG65VkJEREWmc4Nf9dpo2qYdevbvid7d2qBFPQZEIrr+jsStULOeZD5HnB6m3JSZ2td8COEJv+J4/HqtlIiIiIjKO8l2JxJ/VbOeZD5H8v0uW69Kd4TVfhL7YxcxKBIRERG5AMl0ku0k40nWc6bABo8W1Uejc51ncDBuMfbHfKe2XxMRERFR+SIZbn/MQhyI/QGdaj+N5oGjtDGOFeqsGFlIrwbTEJNxXD3BkVc9ExEREZUfkt0kw8VkhKN3w+lqJWBBnF7d7EiOkkCPxi1XhhUwmTJRw+cGBPu2QmX3mvBy8+e9nomIiIiuM7kXc4YyyJ1UpKNs6QdRurlpHjhCvUjF2TmI9lc3FykkWhnNmYhM2o3I5N2ITf1b2Zg4pGbHwagERyIiIiK6fgxKIPR1D1RvtSd3UpGOsqUfRIPOU5vCsUJ3gUNEREREFRebm4mIiIhcSAk2NzeUfAhrUAwJDcFvDkLi2cSt2Bs1F0YlKDb276cORERERFT2yYUrMkjn2dI3oqOub9SQGKGERCUgKj8K19z8T+xSbD71MoK8Gqu36WNAJCIiIio/JLtJhgvyaoLfTr+Co3HLtDHOFRgSZSG7Ij/EjdXHom3QBN7HmYiIiKgckgzXNugOtAm8HTvPzVQrAfOTb0iUJubdkbPQtvp4NAkYqJUSERERUXklmU6ynWQ8yXrOOA2JcpGKnIPYqEpfBkQiIiIiFyLZrrF/XzXrSeZzxGlIlKuY5SKVVoEjtBIiIiIichWtAkeqWU8ynyMOQ6J0li3d3MhJjjwHkYiIiMj1SMaTrCeZT7KfPYchUe6mIv0g8ipmIiIiItclWU8yn2Q/e45DYvJutaNsIiIiInJtkvkk+9lzGBLlfsxyJxUiIiIicm2S+ST72XMYEtNz4tRb7RERERGRa5PMJ9nPnsOQmJodp96LmYiIiIhcm2Q+yX729JD7Niu0XyqjKRPeDIlERERELk8yn2Q/K0smNDuuSSQiorLNbDLCaDTCZPsNn4ioBDEkElExJOHw9+/h4cdmY+Vxxz31UynKDsfsIZ0RXGsAHl4doxWWhmQc+UHe5zlYFc73maiiYUgkqjASsPHlMWhZvyMaDfwEBzK04oLE/IrHwjqhXuhQPLIsEialyBz5G6ZPnotv58/G5He2I9YypYvIxL53xqFx3S7o/PhGRGulZY0xMwPpKclIydYKSoH6Pr8s7/MsvDhjm4u9z0RUEIZEogrDH2F9m8OQEI+oPeux5u/C1AyZEbVlFX7+5yIuoT5631RLPWjogm7AgK51UKlKfdzUrwWqWSZ2HRkpiLsUi6hLhU3SrkkX1BoDblLeZ/8G6Na/leu9z0SUL4ZEogqkSsdbMKSRuxKCTmDtj8eQppU7ZY7G70t3I8asR60ew9Czls5S7h6Ce77bhMj/NuCr2y3BkVyQewPcvVB5n8/+gi/H1OT7TFTB8N88UUVSqSVuHRwKT2Th+M8bcDBFK3fCdHYblv55CTDUQv9xYaiulVvoYTBooZFcGN9nooqKIZGoQvFBm9v6obk3kBW+GT8eTNXKHTHi1MafsFPJiB6hfTCmE7vFIiKqSBgSiSoY7xb9cGsrJSVmn8a6lYeRpJXnkXMGvyw/iER4oPHgQWhXWSsXORFY++EnePvtj/H1nwlaoSYrEpvmfYK33voMX++IhRlZiNq1Aq/ddy/6dbsFXXrcjXtfXY49sTnaDE4YUxC+6Qe88fBEDOo1DGGdR6DfsCfw/KwNOBib92oNU1IE1n88DXcOHolOHYbg5oGP4pkP1uNIvFGbovSYY3fjyxkfY8aHK/DXRa3QXsJ+fPueMs3MxdgebVI2OB67vpuHd2Z8glmrwvNp+s/B6Y3f4j1l+e8t2Ie4QnR5Y7ywF99+9CneffczzF70G37+9nN1PR8t/xf5fS2I37sCHyjreXfeVpzJUgqyI7Dmw4/V93n+Trv3mYhcHkMiUUXj1RhDR7SCnxI+Tm1cj31OUqLUNK7cl6ykyia4dWRLZXobZiOOr/4E//d/32LTebvApkvDoR8+xZtvfo11f0dg9ct3IKz/C3hvyXbsPPAvDv21HUvefxF9uz6Kz444vngm48QaPHlzD7QfNgXvfLsZf+z5F//+fRg7Nq3DJ5Nfwv9+jFavsrYwIva39zHwhsEY+cLXWLHlEP45Fo69Wzdg3v8ex0033o0ZOxNz3TCgpJmSjmHZBzPxf0ooPZ7heE3mlAisnDkTU99ejYMpyjT6yqiWuh0fTv0Ar/3fEuxVdrVD6UexaOo7eG3q19huro6Aglp+kw7g3TsfwiMvf4B3l0ahYc+uaJK+TV3Pq298j12J2nT2zDHY/NF7yno+wfJzvqjmIYU5OL7qM+V9/ga/nisg1BORy2FIJKpw3NF40CC0r6xEgFN/YMUeR6khC8d+Wq+es+jXZiCGtfDWym3kl7rUcSYkbfkMk+YnYcC7i3Dw1D5EnduKHfPvRfsqeuREbsabk1cg3C5jZp9ciQeHTMKXB5Lg3XQI3lyxDiejD+FC1B4c/2sBZj7QAbW8tIkVybvmYMy4T7H9oiea3v4q1h/4E1EX9uHU3s8xpV8NGOJ24q3738TqqCuxsrSYi5REDQgZOAw3VdMhK2ILftzvOCWmHv4FP/6dDn3NbrhzUB1lrnykn8Dn9z+K6dsT4Nl4JD5Z+j/cUssDoUNGoEeQDjmn/8BKh++38m6d/xPLtsbC5NcSo8fIl4jcivTSiMglaCFR/vmbeRAgqiDcQnpiVJg/YIzEr8v345JWfln6cfXq51QlKrQd0Q/NbEJZYViOJfHY+nMUhi74Hp9PDEOj6n7w86+JNqMnY9EHfaFkFsTvXoN1ETY1VDmnseDpaVh5zgT/rk9jze8f4pkBjRHs5wVvP3/Ubt4VEz+ah0/G1bEcvNIOY84LX2B3shdaPTEXm768C90bB8LPxw9BzXph8qJP8VKYL7JPr8eH3/6Lstahjb5ud4zrUR267DP4ZcVB5G3QTcG+Fb/iWKYBDQaNRK/gfKoRs89h6ZMP4cWfY2BocAtmLZuKUfXd1FG62t1xR58a0BvPY/OKA8o7Y8+IMxtWY2uMGQGdhmN4M7UakYgqINssyJpEoorIUAd9R7VFNSUc/Lf5Z+y0O48u7cgGtfYKAW0xZlADuGvlhSeHGR1qDH4ck/pUVR7Z0qPOgDEYVM8ApJ7FgfArNWgpuxdj3rYEmP064MUPJyKssuNQpNdbyi9tXYRv96fDreFQvDGpS96mWJ9WmPBAJ1RFOo7+ugtnylqLqS4IPcd1Qx29EtI2rcce+/SWeBAr159GlmdjDL+jPQK04lyUXW02xWHjK4/gsUVnYKo7AO8vfxt3NLINelXRfUIfhLrJ+/0T/rQ/b1LOT12qhEdddfRQpguxZEsiquAYEokqJD3q9hmG7sE6mM7twHLp5uayNBxc9Sv+zdAhsMst6Nsg3wZOh3RqLPRC3bZNEOToKONdDbX8lSRizkJySqb2zTULJ7fuwqlMwL/Lbbi1WUHRNB3h2w4hyqhD0I0dEeqZiYwMuyEzA/pqNVFNWVXa2WM45ey8v+uoWtdbMUhJZTlntmHl7tx1iZf+XIP1ETnwazcMY9v6aKW5GdOjseXtx3HPJ0eRWaMXpi99D/c5qPqt0nE4hrfwhDFSeb935E6Jcv7pir1JMNTriTv7BNuFeiKqqBgSiSooXa3OGHVzdejMF/DH8t24fAfg5CNYvf4UsqRWaWx31C3OUUJNGT6oVS/AcS2kexUEB1hquow51nMFU3H2+AUl+rmhZqvGqF7getMQdfaSEi3NiFo9GR1qt0ZwsN0QdCOajfkeJ3IAU0YKkuWK3bKmSjuMG94YntIUvGwv4rRi4CK2LdmG/0z+6Dx+IJp5asW5GBH30wzcP+MvJAfehNeXfIhHb3Bw/qjwbYkxt7eCnykGf6z468r7jQwcWfkTDqS4o/Gw29CVt1UhIg1DIlGFVR03j+6KOnq59d5P+CPaUp+XuPcnrDuRDUPdbhjTI+ja1SqZM5CYKLWKBnj7eeV/gYYwZyE1Va560cE3uAGaNm3keGjWGC1aNkWLJtXgbbI926as8EbrkYPQ2seEyD9+xg7tBsnmqB1Y8vsFoEYX3DmorpP9kYVL5y4gUZrR9W5wc8vv3XJH06G3opO/CVF/rL38fiPlH6xeewLpPs0w8vbWqGQpJSJiSCSqyKrddAv61DfAHLMHK/6IUQJaAnYv+wOncgyo1+cWdA3UJrwWdJ6oVMlDiXxZuHDiPAq4GYzN9DpU7fsS1u/6Cbt3Ox/2bHgDt9Qsncir0+mVQXlgzEJGtuMgasrKRKaTLhu9mg/A6PaVYIrciZXb45T3wYT/Nq3BHxf0aDB4NPo43W5vNJrwMt4eXQf6C39gyuhn8cVR55fnGEL6YELP6sAF6/sNJO3/CT8q81TuMByjWhXxCiUicmkMiUQVWUBbjO5fD27mOGxXwuHp839hya/nYXRvgEFj2jq+UKLU+KFhi5pK7DEj8fQJRGdqxU75oUFzmd6ESydPIeY6XpSi8/SBr7SrZ1xCVHzejr5F+vnTOO+4W0j1HsmDb1f2tzkGfyzfheicc9i0fB8uejbCreM75Ps+uAe2xP0ff4pp/QKVkPkrnh/1IhaGO9l5umD0uaM76uguYseKnThvSsDOxb/hZHZVdJvQF3JbbyIiK4ZEogqtMjqM6AW5EPbinnVYtXwDtkYa4dW0L0a0u9YNjx4I6dkNTbyBlF0L8OaKSOR/rxRl+q4dUF/Z9pQ9izFv6/W7I4iucg3UrWoAMs9hx85I5I2JShhb+jtOOQ2yBjTofyu6BwEXtv2MzTt+x/JdCfC7cShud3LBymU6HXS+zfHo/Dl4qXNlZJ/+CU+NmoIlJx2H1WrdR+LWxm6I27YGP2/fgu83RcJcpzvu7F+bHwhElAuPCUQVnF/bQbilmSfMl/7FLz8fxgWTF1oMG4gb7XtTvgZ824/Ds0Nrw80Ug59eehZTVp9F7so3E5L+3oTv/4hSm0r9Oo7GvV2qAFkR+PbZ1zF3b0KeYJl96W8sfP09LD1R9Nvz6YyZSEvPQXa248FoveamUhP07hikHFCTsOPTT7HylO0VMhk4seQdvLoqDm75dC1j6cuwJnRxf2PjjzvwT5I/Oo0fhOaFbAHW+XfASwvfw8SW3sg4sRKPjnoNK/9zkEortcbo25rAK/4Als1bia3ndAiRzrara+OJiDQMiUQVnW9z3HpLY/jkxGDrH+HI8muJEcObwsk1sqVLXwMj3n8Hz3b2hzluL2ZNGIKWHcdh7CNvYvJTT2N4jz5o2m0yVpzRzvvzaIQHP3oJw+u6IS18LZ7t0xdte92P+55VQtnkKZgwcAAaN7kND809hPhinI4Y+/MraF/rBgQFORjq3IIXfrPevaQa+jxxBzpXkry6Eg/cNAj9x7+CF55/AaN7DEDXR35H0Pgx6KTkWeeqovsdvRCij8TP3+5AXHBn3DmkHorSZaGhZm+89f3/YUxDd6QfW4KHRk7Duij7cOyN1qOGoZ1fArat2IYoj8YYPrYd8t00IqqQGBKJKjwvtLx1KNpXdYenhxeCuw7DLU0LvuOGzt0dHt6e8MgTvnRKuTc8vbzh5fQSZR3cfZTxnp7wtJtGV7UTXluzDAsn9URjvyzE/LMHa76Zj1lfrMXGfXGo3L43ejTyUpZg4dF4NL7e9CWmjmiCACQiYvcWLJ47D+/P+gErt/0HU/3ueOqjKRjXsMDrpS/TK9vm4+4GD7d8DpFmM2wvlvZu8yAW/vAU+jfwhjnpDLavXoyPP1mJDeHeGPjmXMx7IBT+yj7xqewLT8fXtqBKx6G49QY/5GQCjYbld8GKEghl3/n4wc/uPELP0OGY8/1LGFTXG9kn12LKU59iS2zuWxJ6NOmPcV381cd+bYdidJuCvxIUI2MTUTmna9CgoXKoU/6Tn8oQGhKKO2dm4NaQ2fB2sxxEiMjVKYHHaFJDj06vh0G7o4lzNtMbDDDYTW42GmFUxumVcc4WZTYp0yjZRadX5neWxXLSEH36DM7FZcDgXx21agWhemUPp99ujSmxOH06ChcSMuFeqSpq1q+DWv6eRf82bDYipxCt0w5fnykTF8+cRMT5VOgDaiAkpDaqeslEyj7LUfaZ8uiq94vCuo8d7X9hHS/yTJNzCvNuG4VnNuvQd/YKrLivnuMudtIP4H83j8MHRwMxYdkazB3IzwQiV5Sek4DVJ5/At896ISIiAjo511kZHB6CfN0DkaHMQEQVhXIwUIKEm5sEEyfpJReb6R1MLqFExuW3KAlBlvVpBY64+aBGo+bo0Lkt2jarg+B8AqIw+FVHaKvWuKlbR3RsE4o6xQmIQmfZtoIGh69P74lqDZsjrGsHdGhRRwuIQtln+c2nKdR+UVj3saP9L6zjHU2TdmA1FvyZCH3NrrhrsLM+GBUZCYhNVtKyZwDqBl+XExCI6BqQzCfZz57Dw5C3WyCSsqO0Z0RE5DoSsG3+jziS7okWt09A/xrOE2vS4W3YfcEEQ/VmaFvP4S1fiMgFSOaT7GfPYUis7tsSF1KPaM+IiMg1mBC/9Qv839KzMFbviicmtst1hxU55eiytHAs+XgdTmS5oUG/IejC2/URuSzJfJL97DkMibUrhSE67bD2jIiIyrOYTR/jiaf+D8/dewduGjEX+9KDMfSNyRhd37ahORm/vT4RI+6fhimTnsGgm8bi2bUXoKs3AFOe74aq2lRE5Hok80n2s+c4JFYOg17vifCEjVoJERGVV+b4o1j71QJ8tmQPzhlCMebdufjsrobI3YBshjkhApt++BozP12DP8JTUPnGMfh4xdsYU6/wV4YTUfkiWU8yn2Q/ew6vbv7tt804HLMQx+JWol+9N+Cu5wnLRETlVU5iJI7+fQaX3IPRtHkD1PBzEvqyEnDi4N84meSBGqFN0Kx+FQddHBGRq8g2pWPj2dfQNPA23BA0Ab169y746mbRPHAkDEo4PBK3XCshIqLyyK1Kbdxw003o0THUeUAUHv5o1LEr+vfpiNYNGBCJXN2RuBVq1pPM54jTkOimzNS+5kMIT/gVx+PXa6VEREREVN5JtjuR+Kua9STzOeI0JIp6VbojrPaT2B+7iEGRiIiIyAVIppNsJxlPsp4z+YZE0aL6aHSu8wwOxi3G/pjv1PZrIiIiIipfJMPtj1mIA7E/oFPtp9E8cJQ2xrECQ6KQhfRqMA0xGcfVExx51TMRERFR+SHZTTJcTEY4ejecrlYCFkRXv0FDuaxZrm/OdXWzIzlKAj0at1wZVsBkykQNnxsQ7NsKld1rwsvNn/d6JiIiIrrO5F7Mcqs9uZOKdJQt/SBKNzfNA0eoF6k4OwexV6/eiDgZAZ38J1c4FyUkWhnNmYhM2o3I5N2ITf1b2Zg4pGbHwagERyIiIiK6fgxKIJR7Mcut9uROKtJRtvSDaNDlf3vNEgmJRERERORa7ENioc5JJCIiIqKKhSGRiIiIiPJgSCQiIiKiPBgSiYiIiCgPhkQiIiIiyoMhkYiIiIjyYEgkIiIiojwYEomIiIgoDzUkmq0/1AdEREREVCFpWVB+sSaRiIiIiPJQb8snt+NTb80nt+ULLf5t+dTlaGwfExEREVHpkdvoWdk+Lgr1tnwREZb5rfduvpqQKPM4G6zjiYiIiKjkWQOh/HY2FFaJhERr8DOZTOogz7Ozs5GZmakOWcpjeW47noiIiIhKll6vh8FggLu7OzyUwdPTUx3kuYQ9GS+DKCgw2ofEIp+TKIFPgl9OTo4aBJOTkxEbG4uo6GhciIlBQmIi0tLS1HFGo5EBkYiIiKiUSCaTzCXZSzKYZDHJZJLNJKPJOMlsxam0K3RItA+HKSkp6gbExsUhSdsIIiIiIrq+JJNJNpOMJllNMltxwmKhQqIsTGoFZQVZWVmIj49XV5ySmqqujIiIiIjKFsloktUks0l2kwwnWa6wLb0FhkRrQJT0mZ6ejouXLqnVmVJGRERERGWbZDbJbpLhJMtJpitMUMw3JNoHxISEBKQqiZSIiIiIyhfJcJLlChsUnYZE+4CYqCTQ9IwMbSwRERERlTeS5dRMV4ig6DQkSju2zCht14lJSQyIRERERC5ADYpKtrOen+js+hIlJFrSo22GtNYiqgFRS5tERERE5BqsrcSOLmSxPnJYkygTy5ChJM3UtDStlIiIiIhchWQ8yXrW3GfPYUiUakdpp5Z+ddjFDREREZHrUbvIUbKeZD5Hec9pTaL03J2ZlaWVEBEREZGrkawnma/QNYkyobRVsxaRiIiIyHVJ1pPMV+iQKCcxZikDEREREbk2yXyS/ew5DInOEiURERERuRZrC7I9pzWJRERlSxYu/LMLu47GKI8Kko1j3zyBB2fuRIpWklv+47Oi/8Gu3Udwnt3DElEFUeiaxOycHO0REVEZkXYES997E//39iIcLszdQXOykZ1fg0g+400xm/HxB+vwn/VQmBmDQ+uXY8tZHhuJyDU5yn5OL1whIipLkg5swG6Pjujg/hc27E/USq+R1MNY/uVmnDfrtAIiItdS6AtXeFUzEZUtF7F34xFU7jwYg8L88Pemv5SS3LIv/IWls6bilZenYs7KvxCVqY3QFDTemYzj6/DV4t2IQxr+WfMF5n25Hse1ZmjjxUP48dM38crk1/DBd9txTiuP2bkI877ZhCOH1uKTqVPw2nvfY1d0JnLiDmLl7Dfw8stv4vNNp8B7WRFRWeHo/s1aSMw7goiorDBH78Qvf1dF1x5tcGPPLqh86BfsiL5y3DKeW4PXHnsTmzKaodfArgiKWIYfj2RdPrIVND5fBk/4+HrCXa+Hh7cPfLzdYdApy4xejzcenYpfs1qh36DO8Dv4CV6avg7RyndsfcIRbN71C5b9eAlNet6MBhdX4+0338OMad/gXP2b0a+NHjtmvoI5O5O1lRARXV+WkGh7VDQ7rkkkIio7jPhv2684VbcXbq7vDs/QXuhV9xQ2/XFWGSNSsX/5Mpxp/SSmPT8GfW/ugzHPvoiB1VILOT5/XqG9MXZoG1QxeaFR3/GYML4PQj1TsG/xYkR2fgHTnhqOnjcPwgMv3IkGR9fit/+UpSoH28xL1TDwqbuU9fXHPU+NR+OzfyG5z/N4bJiy/bc/hns7m/HvobOFuAiHiOj6YEgkorIt+xR+//Uc6rWuhqj9e7H3QAxqtKmHc5t+wwm5GM8Yg2NHk1C7XUtUs54yqA9A/YYBcJPHBY0vCp22AHWZF5F+bDGmTpqE55Xhxbd/QZQpHtGxmep07tVDUNvPMrnOtyoCvAPQqFE17aDrCf9qPjBnZBYqqBIRXQ8MiURUpmUc24gtF9xwaes3mPvpp/js08/wzbaL0Ef9jk1H5STAHGQZlVDmbhv5TMjONmoNJwWNLw4zjCY31O5yK8aMHYvb1eEOPDL5WQyoY1Cn0On0dgdYHfT6Kxe+6KyBk4iojHIYEvV6ZkciKgtS8ffmXcjs8Aje/+ILfG4dvvwAj3TMwp7Nh5FiqIr6td3x3+FwJGlzIfscDh+JgdrrV0HjC80Ek1GLlYZqCGngjdhYDzTp0AEdrEO7dmhWw9MyDRFROeIo+zkOifyGS0RlQeJ+/LI9HS173gh/rciiKtr3vgHpO37BvoRq6DS8B9x/exevzlqN37esw9dvfYJ/fGrCQ522oPGF4B2Emn7R2LHmJ2xYvRnHMvzRcUR/+G6ZgcnvLsam7TuwefksvDR1JSLZOQQRlUOOsp/B39//de2xqmrVqhg+fDj7SiSi6+7S3ztx2qsNevW9EfYVdJ7KscorIwEJnvVxY7vu6NnWD1EHd+PAyQzU7j8WPWqYoA9oiDZNg+Bbo32+4921ZVrlJFxEsntVhLRqiiBJkm7BaN6yMqL27cbxjJpo26Exqtdog97daiH16B7s2n8MF3QN0f/2IWgV4IH0izHI9KqNZq3roZIcd7PiEZfmhsDQGxBaVZqjjUi+lABzQChaNw4s+rmRREQlzN3dHT/++CPi4+PV86olM+rqN2hglsueLVc+mxEaGooFC+YjJTWV58wQERERuTjJgX6+vrj77rsREXHyckh02Nzs4eHBJmciIiKiCkAyn2Q/ew5DosFggJubm9axIhERERG5Isl6kvkk+9lzGBKlXdrT01NtfiYiIiIiF6VkPcl8kv3sOa1JlIklWfICFiIiIiLXIxlPsp5kvkLWJJrViW1rE9nsTEREROQ61GxnU4sowxWW3OewJlE6VJQTGGVGLy8v5OTkaGOIiIiIqLyTbCcZT7KeesFyYTvTtjY3y0yyAHc3N2RlZmpjiYiIiKi8kkwn2U4ynmQ9yXyFvnBF0qRMbK1J9PX1VZ8zKBIRERGVX5LlJNNJtrPWJMrzQtckSifaMrGczCgzy+Dn56eWpaenw2TifaeIiIiIygvJbpLhJMtJprPmO8l6UuboBioOQ6KwhkRrk7O3tzcqVaoED3d3ZGZkIDu7aLfGJyIiIqJrTzKbZDfJcJLlJNNZm5qtIdERpyHRvjZRFubj44PKlSurCzfm5CA9LY0XtRARERGVQZLRJKtJZpPsJhlOspy1mTm/WkThNCQKa1C0docjK7AGRRmkPDsrC2mpqcjk+YpERERE151kMslmktEkq1lzm2Q4yXKS6aQ8v4Ao8g2Jwj4oygrkZEdpz/b391erLaXcbDIhJTkZqSkpSFNSa5ayYVK9yfMXiYiIiEqe9HUotYWSuSR7SQaTLCaZTLKZZDTJapLZJLtJhitsQBS6+g0aKOuQDrOVZ8qP0NAQ/Pbbb5axNizTmNXQJxskg4RA28EaDKUHb+tARERERKVHrk62DhIArd3a2A7StGzbvOwoIPbq1QsRESeVdGipJCx0SLSyBkX5bQ2L8twaDq3PrQGRQZGIiIiodEgwtP6WAChB0BoWrc9lsLYM51d7mDck1tdCovynBEUJib/nExKtLMHSEhglCMpv+0HGExEREVHpsQZA+8EaHNXAl084tOqphsSIy9MXOyRaWYOgugybQUIiEREREZU+2zBoHYT1d2GUeEi0Jcux56iMiIiIiK6eoxBYlGBoq1RDIhERERGVT/YhscAucIiIiIio4mFIJCIiIqI8GBKJiIiIKA+GRCIiIiLKgyGRiIiIiPJgSCQiIiKiPBgSiYiIiCgPhkQiIiIiykOf+34ovDsKERERUYUmcVAZdPXqN1BvtWK544oZoaGhJXJbPt6Oj4iIiOjasL0Vn+3jorh8xxX5T+66crUhUb2ln5PBOp6IiIiISp41EKqhzslQWCUSEq3Bz2QyqYM8z87ORmZmpjpkKY/lue14IiIiIipZer0eBoMB7u7u8FAGT09PdZDnEvRkvAyioMBoHxKLfOGKBD4Jfjk5OWoQTE5ORmxsLKKio3EhJgYJiYlIS0tTxxmNRgZEIiIiolIimUwyl2QvyWCSxSSTSTaTjCbjJLMVp9Ku0CHRPhympKSoGxAbF4ckbSOIiIiI6PqSTCbZTDKaZDXJbMUJi4UKibIwqRWUFWRlZSE+Pl5dcUpqqroyIiIiIipbJKNJVpPMJtlNMpxkucK29BYYEq0BUdJneno6Ll66pFZnShkRERERlW2S2SS7SYaTLCeZrjBBMd+QaB8QExISkKokUiIiIiIqXyTDSZYrbFB0GhLtA2KikkDTMzK0sURERERU3kiWUzNdIYKi05Ao7dgyo7RdJyYlMSASERERuQA1KCrZznp+orPrS/SXe8xRQ6TlmbUWUQ2IWtokIiIiItdgbSV2eCGLFg4d1iTKxDJkKEkzNS1NKyUiIiIiVyEZT7KeNffZcxgSpdpR2qmlXx12cUNERETketQucpSsJ5nPUd5zWpMoPXdnZmVpJURERETkaiTrSeYrdE2iTCht1axFJCIiInJdkvUk8xU6JMpJjFnKQERERESuTTKfZD97DkOis0RJRERERK7F2oJsz2lNIhFRuWfOxKWIXdiw8gd8/8MK/PzHYUSlWr4Ax/7yP9w5aSUi878rFRFRhVDomsTsnBztERFR+WS8uAtzn5qAeybNwZrdx3Din534+cvpmLH2LCQm6sxGZOXwvGsiIuEo+zm9cIWIqNxKPYQvX34LO2pOxKeLv8Xst17D/6a+gzkLFuKtYbVh0CYjIiKLQl+4wquaiaj8MuLs+q+x3jgYzz/TD7U9tGKVAd7euQouM148hB8/fROvTH4NH3y3HeesdyI1JuL4pm/x4dRX8Mob7+LrTaeQrjVRx+xchHkLNuHIkbX45K238d3eRMsIIqJyxtH9m/W5i3hyDhGVc+ZYHNp1FkHde6GZl1ZWAGP0erzx6FT8mtUK/QZ1ht/BT/DS9HWIVr4vZ/yzDF9suITaXQdjUEc/HPz4Obz5S4x6tNQnHMHmPZuweMF+uNetCR/L4oiIyh2HIVH7TUTkGoxJiLloQtWgALhpRflLwb7FixHZ+QVMe2o4et48CA+8cCcaHF2L3/4zwrPpBLz59lMY3acrug2+F/f388fZQyeVuRTKQTXjXA46PvsKHpxwN25rX0VdIhGRK2BIJCLXonODh5sS3jKyC9c2YozBsaMXkX5sMaZOmoTnleHFt39BlCke0bGZ0BnSEfHLl3j35Scx8c67MfWXGGRnZ8FyUo4ObsGt0CqIh1Iicj08shGRazFUR6PGfjh/8B9c1IryZ4bR5IbaXW7FmLFjcbs63IFHJj+LAXXS8dfHkzBtQxZaj34Kb8z6DK8NqwO99bRtnbI6b1948EhKRC7I4aFNr+cRj4jKq0q4cUB3+O35CvN+u6B2d2Mrz2k3hmoIaeCN2FgPNOnQAR2sQ7t2aFb1AvbtT0bLkRMwoG0oagaYcfF8Akw8RBKRi3GU/RyHRJ3y9ZiIqJzyuuFuvHx/fRx8ZyIeeHkOFq1ei7UrFuLjqc/h9RWn7IKjPzqO6A/fLTMw+d3F2LR9BzYvn4WXpq5EpBIgG9QBDq1YhPXbtmDlrPfw8wXvKzWJREQuwlH2M1Tx939de6yqWrUqbhs+nH0lElE55oaA5r1xS48QGOJO4J+//8Xp2CxUbtobt/a7AdW99Ui/FIMMr7pocUNd+Fdvg97daiH16B7s2n8MF3QN0f/2IWhVNQAhHdvA7/xe/Ln3DPQ3jsKQVl7w8G+AG5oFIzsuBtkeNdC4TX1U5ndrIirH3N3dsfrHHxEfHw+dEhjV/+rVb2CW9he59Fn+Cw0NxTcLFiAlNVWdiIiIiIhcl2RAP19f3HX33YiIiLgcEh02N3t4eLDJmYiIiKgCkMwn2c+ew5BoMBjg5uamJksiIiIick2S9STzSfaz5zAkSru0p6eng8sAiYiIiMhlKFlPMp9kP3tOaxJlYkmWvICFiIiIyPVIxpOsJ5mvSDWJtrWJbHYmIiIich1qtrOpRZTBMkIbFA5DonSoKCcwyoxeXl7IycnRxhARERFReSfZTjKeZD31guXCdqZtbW6WmWQB7m5uyMrM1MYSERERUXklmU6ynWQ8yXqS+Qrd3CxpUia21iT6+vqqzxkUiYiIiMovyXKS6STbWWsS5XmhaxKlE0WZWE5mlJll8PPzU8vS09NhMvGeVERERETlhWQ3yXCS5STTWfOdZD0pc3QDFYchUVhDorXJ2dvbG5UqVYKHuzsyMzKQnZ2tTUlEREREZZVkNslukuEky0mmszY1W0OiI05Don1toizMx8cHlStXVhduzMlBeloaL2ohIiIiKoMko0lWk8wm2U0ynGQ5azNzfrWIwmlIFNagaO0OR1ZgDYoySHl2VhbSUlORyfMViYiIiK47yWSSzSSjSVaz5jbJcJLlJNNJeX4BUeQbEoV9UJQVyMmO0p7t7++vVltKudlkQkpyMlJTUpCmpNYsZcOkepPnLxIRERGVPOnrUGoLJXNJ9pIMJllMMplkM8loktUks0l2kwxX2IAodPXqN5DestUVyX+hoaH4/bfftNFXqOOVQUKfbJAMEgJtB2swlB68rQMRERERlR65Otk6SAC0dmtjO0jTsm3zsqOA2LNXL0SciLg8vtAh0coaFOW3NSzKc2s4tD63BkQGRSIiIqLSIcHQ+lsCoARBa1i0PpdBQl9BtYcOQ6IEPmtQDG2Uf0i0kmllsAZC+W0/qMslIiIiolJjDYD2gzU4WkNfQWxDovKj+CHRyhoE5bftICGRiIiIiEqfbRi0DYXW34VR4iHRlrocO47KiIiIiOjqOQqBRQmGtko1JBIRERFR+WQfEgvsAoeIiIiIKh6GRCIiIiLKgyGRiIiIiPJgSCQiIiKiPBgSiYiIiCgPhkQiIiIiyoMhkYiIiIjyYEgkIiIiojyUkMg7ohARERFRbrp69etb7pxXAndcsSzIwvYxEREREZUe21vxleBt+a4uJMo8zgbreCIiIiIqedZAKL+dDYVVIiHRGvxMJpM6yPPs7GxkZmaqQ5byWJ7bjiciIiKikqXX62EwGODu7g4PZfD09FQHeS5hT8bLIAoKjFd972YJfBL8cnJy1CCYnJyM2NhYREVH40JMDBISE5GWlqaOMxqNDIhEREREpUQymWQuyV6SwSSLSSaTbCYZTcZJZitOpV2hQ6J9OExJSVE3IDYuDknaRhARERHR9SWZTLKZZDTJapLZihMWCxUSZWFSKygryMrKQnx8vLrilNRUdWVEREREVLZIRpOsJplNsptkOMlyhW3pLTAkWgOipM/09HRcvHRJrc6UMiIiIiIq2ySzSXaTDCdZTjJdYYJiviHRPiAmJCQgVUmkRERERFS+SIaTLFfYoOg0JNoHxEQlgaZnZGhjiYiIiKi8kSynZrpCBEWnIVHasWVGabtOTEpiQCQiIiJyAWpQVLKd9fxEZ9eXOAyJ1lpENSBqaZOIiIiIXIO1lTi/C1kchkSZWIYMJWmmpqVppURERETkKiTjSdaz5j57DkOiVDtKO7X0q8MuboiIiIhcj9pFjpL1JPM5yntOaxKl5+7MrCythIiIiIhcjWQ9yXyFrkmUCaWtmrWIRERERK5Lsp5kvkKHRDmJMUsZiIiIiMi1SeaT7GfPYUh0liiJiIiIyLVYW5DtOa1JJKKKIyv6H+zauRN//vkndu78CweOnkJMSg4KvrPnFbG//A93TlqJyKLMVAzqtu4+gvPltOvWSzs+xv/e24jzxTqbJxvHvnkCD87ciRSt5OqZkRF9CL+t+gHfL1uH3WdTwBONiCqeQtckZufkaI+IqCIwxWzGx9Nm4ov58/H1l59g5huT8MDtt2HC819i98XCtSrozEZk5RQiXmTG4ND65dhytnjHGXVbP1iH/6yzX+XySlRhtkWvh16ng057WmQ52cguwYae2M1v4oHHZuKX8DjEHV+PmY/ch1fXnQfbkogqFkfZz+mFK0RUwfh2wMQP5mLu519hwQ/LsHTB6xiEX/DmC59hX8lVWwGph7H8y804by52TMqtpJd3NQqxLVU7P4I3nuuLmg6PvteeuXJXvPjVl3j7+cfxxMsf4INHQvDvsnU4wQYlogrFUfYzVPH3f117rKpatSqGDBmiPSOiiiDnwm6s2ZqDsFu7oo6HlOjg5lMLrTvVxOnl32F/QC/0beynTmu8eAhrF3yOb1ZswsELHqjbpB4quwFpJzbh5xO1MGBgC1RWMpKj6TxOrsM3a/Yi4lQ0UjJjcOJwHCq1aIRqyvzOlmvv8rYO64rA00VfXszORfhucww8df9g2dxvsHbPBfiENEGNjL+x+su5+Hb1NpxEXbQICYC7ts5cjIk4/ttSfLtwCdb8vg9njbXQrGEAjOHOt8WWuv7fk1H7hrpI2yXbEgdfr5P48YuvsOzXw0io2gRNg70vf4PPvvAXVnz1BRat3oKjSd7wSTyIA9k3YvBNdSBvlcP9fGYDFi7dhvjAlmjob1CmykD4+gVYvteIhi1rw9smw/rWaohgL2uBHoakg/h5B9BlaBiCHex/InJda9euRfyleOh0yjFBGcrId1kiKpOqtMbNbb1x7ugZpCpPjdHr8cajU/FrViv0G9QZfgc/wUvT1yHarpXZ2XQX9J7w8fWEu14PD28f+Hi7wyCBspDLzcNQ9OXpE45g865fsOzHS2jS82Y0uLgab7/5HmZM+wbn6t+Mfm302DHzFczZmaytJLeMf5bhiw2XULvrYAzq6IeDHz+HN3+JgdnJttjTxx/Gr39Fqc25lm1RwuVXfyOwSz90rnoCC6e8geVnLN/ojefW4LXH3sSmjGboNbArgiKW4ccjWZfPFXX2OhMadkbz9C34+rvtuKRMl3N6LT6d/zf8w25EVQfbdEUGTu4/Dl3j5qjtqRURUYVQ6NvyERFZeME/wBOZScnIRAr2LV6MyM4vYNpTw9Hz5kF44IU70eDoWvz2n20zhfPpdrj3wNihbVDF5IVGfcdjwvg+CPUs7HLz8grtXfTlKQfCzEvVMPCpu9D35v6456nxaHz2LyT3eR6PDeuFXrc/hns7m/HvobNwdDsBz6YT8ObbT2F0n67oNvhe3N/PH2cPnUSOw23RZnJG2ZaMuEoY8OITGNajB4Y++jRG1T2Hvw7GKiNTsX/5Mpxp/SSmPT9G2dY+GPPsixhYLVU7XzC/1+mLTnffhxZHF2DR7uPYOP8nuI18HLc1dFfndCwL5zfNxLsb/THqnu6oqpUSUQVj80WSIZGI8pGBhPgseAVUgZcxBseOXkT6scWYOmkSnleGF9/+BVGmeETHZmrTKwo7nTRniMJOX5DCLk+Zzr16CGpbWs+h862KAO8ANGpUTTsgesK/mg/MGZkOL97QGdIR8cuXePflJzHxzrsx9ZcYZGdn5b4i2LotBVGm8whuhpAAbXo3fwRX80Cmsm6T+jqSULtdS1SzLk4fgPoNA6C2Ahf0OgO64sEHQrB3zjQsSRqIh4eHOG4+F8Y47PrseTy/CBj/3lQMr5dfmCSiioIhkYicSzyELfuz0aRtKJTYBKPJDbW73IoxY8fidnW4A49MfhYD6sh5b1aFnc6qqNMXpODl6XR6u4OfDnr9lWCnno/jUDL++ngSpm3IQuvRT+GNWZ/htWF1oC/ERd3O5N4Wnc26c5BlVAKtu+2JgSYlkBq15uaCXqcSQH0rwS0jBdneleDt7GiffRY/TXsRX8UPwJsfT8aAemxnJiILh4cNvZ7ZkaiiM6eGY+V7n+FgvTEYf1MAYKiGkAbeiI31QJMOHdDBOrRrh2Y1bIJFoaYzwWTUzn8p7HLzVdLLcyLrP+zbn4yWIydggBKcawaYcfF8Aky5Dpk223I1DFVRv7Y7/jscjiStCNnncPhIDNQLjwt6nQl/4rOPj+DGZyajT+J3mLMu0kHNqBH//fghvs8YiddfHIyGXloxEVU4jrKfw6ubbx02DCYHJzASkWtSrxj+/SSSY8Oxb8cf2LDqG8ybtxLHgkbgf6+MRhP1clgvBFdPwW+ff4lfI3XKsySc3rMSc5dGotnNLeAeYb26uR0aBTmfroo+Fcc2rsHeJF+4R0cip0FztKiZz/R2lXq2VzerV2Lrira8K9tpuQobWWex7ccD8Os9FG2ryUEyBzF//Yydxo4Y0qlm7iZavQkX967DL4dS4OebisOrvsVvZzOQ7NMWt/SoD68829IQgXZXCMtV4D9F1MJAZf1u9tuCdJz6/Wdlv/fFwJY1Eewfiw1fLsSOi17wyjiF3xYuxnF4ItVHrm5uhLrO3o/uNXB49lvYVPshvDA6DDfUjMLiOb/CvVsvNKlk+0EQj12LfsAJzwAkH9uHvXv3asN+nDGEonlNpkaiisKghMQ1a9YgPj5e2jSkmcNxSLxt+HD2lUhUgeQkXESy3hNe7m5w9wlArWbdMOKBx/Hg8HYI8ryS0twC26B3t1pIPboHu/YfwwVdQ/S/fQhaBXgg41IMMrzqosUNdeFf3fl0OrdgNG9ZGVH7duN4Rk207dAY1WvkM722bit1W92rIqRVUwRJSCzi8tIvxiDTqzaata6HSmpIjEdcmhsCQ29AaFVppjUi+VICzAGhaN040HL+n5XODw07toHf+b34c+8Z6G8chSGtvODh3wA3NAuGp4NtCbALiSnK+rO966KZsp/0yj7LtS1yDujFNBiCm6BN/SrwrNEePdv6Iergbhw4mYHa/ceiRw0T9AEN0aZpELydvB/1In/Htrj6GHj7AIT66uBRsynqGSJx/JwbQlvUVAKlxpSE6KhMGNzt97IOPnVaKmGbIZGoonB3d8fqH3/MFRJ19erXt1z1rPyQB6GNQvHNggVISU21OTeGiIiIiFyR5D8/X1/cdffdiIiIuBwSHZ586OHhod42ioiIiIhcm2Q+yX72HIZEg8EANzc3NVkSERERkWuSrCeZT7KfPYchUdqlPT091SZoIiIiInJRStaTzCfZz57TmkSZWJIlL2AhIiIicj2S8STrSebLpyYxd42hTGxbm8hmZyIiIiLXoWY7m1pEGSwjLL+Ew5pE6VBRTmCUGb28vJCTk6ONISIiIqLyTrKdZDzJeuoFyw460863uVlmkgW4u7khK7MI91AlIiIiojJJMp1kO8l4kvUk8xX6whVJkzKxtSbR19dXfc6gSERERFR+SZaTTCfZzlqTKM8LXZMonWjLxHIyo8wsg5+fn1qWnp4Ok+kq7mZPRERERNeUZDfJcJLlJNNZ851kPSlzdAMVhyFRWEOitcnZ29sblSpVgoe7OzIzMpCdrd5inoiIiIjKMMlskt0kw0mWk0xnbWq2hkRHnIZE+9pEWZiPjw8qV66sLtyYk4P0tDRe1EJERERUBklGk6wmmU2ym2Q4yXLWZub8ahGF05AorEHR2h2OrMAaFGWQ8uysLKSlpiKT5ysSERERXXeSySSbSUaTrGbNbZLhJMtJppPy/AKiyDckCvugKCuQkx2lPdvf31+ttpRys8mElORkpKakIE1JrVnKhkn1Js9fJCIiIip50teh1BZK5pLsJRlMsphkMslmktEkq0lmk+wmGa6wAVHo6tWvr6xDOlS0rCy0USh+/+03bfQVMk4GCX2yQTJICLQdrMFQevC2DkRERERUeuTqZOsgAdDarY3tIE3Lts3LjgJiz169EHEiwjJOpilsSLSyBkX5bQ2L8twaDq3PrQGRQZGIiIiodEgwtP6WAChB0BoWrc9lsLYM51d76CQkKmOUH/JfaGj+IdFKZrIGRgmC8tt+sCyYiIiIiEqLNQDaD9bgKOPzC4dWJRYSraxB0BoarYOERCIiIiIqfbZh0DYUWn8XRomHRFuWBeXmqIyIiIiIrp6jEFiUYGirVEMiEREREZVP9iGxwC5wiIiIiKjiYUgkIiIiojwYEomIiIgoD4ZEIiIiIsqDIZGIiIiI8mBIJCIiIqI8GBKJiIiIKA+GRCIiIiLKgyGRiIiIiCxsbtZSarfl4+34iIiIiK4N21vxXdVt+SIilJxYQrflk5mdDdbxRERERFTyrIFQfjsbCqtEQqI1+JlMJnWQ59nZ2cjMzFSHLOWxPLcdT0REREQlS6/Xw2AwwN3dHR7K4OnpqQ7yXAKijJdBFBQY7UNikc9JlMAnwS8nJ0cNgsnJyYiNjUVUdDQuxMQgITERaWlp6jij0ciASERERFRKJJNJ5pLsJRlMsphkMslmktFknGS24lTaFTok2ofDlJQUdQNi4+KQpG0EEREREV1fkskkm0lGk6wmma04YbFQIVEWJrWCsoKsrCzEx8erK05JTVVXRkRERERli2Q0yWqS2SS7SYaTLFfYlt4CQ6I1IEr6TE9Px8VLl9TqTCkjIiIiorJNMptkN8lwkuUk0xUmKOYbEu0DYkJCAlKVREpERERE5YtkOMlyhQ2KTkOifUBMVBJoekaGNpaIiIiIyhvJcmqmK0RQdBoSpR1bZpS268SkJAZEIiIiIhegBkUl21nPT3R2fYnDkGitRVQDopY2iYiIiMg1WFuJnV3IIj0qOgyJMrEMGUrSTE1L00qJiIiIyFVIxpOsZ8199hyGRKl2lHZq6VeHXdwQERERuR61ixwl60nmc5T3nNYkSs/dmVlZWgkRERERuRrJepL5Cl2TKBNKWzVrEYmIiIhcl2Q9yXyFDolyEmOWMhARERGRa5PMJ9nPnsOQ6CxREhEREZFrsbYg23Nak0hE5JgJ6dFHsG39Siz+fhnWbNqH/5JL4Etl1gmsePNVzN+frBWUI1e77Rd/xWu3P4klZ0vhFB/jRfy1fDUOlcPdSkTXTqFrErNzcrRHRES20vDPt8/izgfewDebDyI8fD9+XfABvvgzXhvvjBmpZ7Zj2ZoDSNFK8tDpoDfo1b65CjX9NVPUbS8GnbnkzwE3puDsn9/h9Qfvx/8W/1MG9iMRlWWOsp/TC1eIiOyZozbiq2UJ6DV9Aea98zqmvDoNH33zNSbf7K9N4YwR535fiDX/piuRy4n/b+9OwKMo7zCAv9kj2Sy5TIAQjpBDQrhEOZ4CCg8goghSUamAIqDUqtDHCx5LOR5sPXuBBakWwyURD46qoICSChRBIBYpAnJEjqAoQu5jk03S+c/sJJtld0l2IWvI+9udnXu+bzawefPNseZk3DljLibcEK6M1GH5BlPfuvvAy3en+qYSp9fOwpMLvkK72wagtc/plYiaCnfZzxgZFTXXMayKjo7G8OHDHWNERDUqz2figw1nkHTHSFwfrf+NaYTJ5BiuKsGp7auwOO1tfLTzKIqjU5DcsgiZ76Rj26ETyM6zIf/bAzhW1R5d21i1dXS2b/Dx0jU4YG6Jws/edb+82+1bYCg9hs0r1mJ/hRW5W5Zi8XsZOFLWFp2vteLstnS8vvgdbN53AZEpqYizuv3bGKXf78WH6cvx1ppN2Hk4FxHJKWhlzcGeetW9IzpFntbqUhWJ0h0r8c/0D7HzRBDiOyUiyuxYvrIAx7asxBtLVmNTZjYMMWZkbT+O2FuHoUukkujc7mcJvlqTjg1HTeiQGosQ2cy53Xjvrc04HZ6Ka5Vt1AiCJb4f7hozAt0N+7Fhawl6jOyPdrISEZEH69evR05OjvIJojzkCIljOhHRJRnbDcbIHrlYM/dZvL3vPGqfwVKE/6U9hafTshA7YBgGJ17A2llPY/F+G4JDrbAEG2EwWmCxhiLY6KZpK8iOk//Zim9tJg/Le9p+MWCwIWvrFnz61nLsDOuNQTdYkLloBp7/08v462dG9Bw6AG2+W40/PrcOp9weKDmHz95YgQPB1+HWXw7BtTnvY870xThQaqhn3Y3VdclYuRD/KkrF4Js7o3zr3zDr1V3QTgssxJevP4XpS48jut8tGNypFJvSPsZ31Zv1tJ8h6NYzCgffXIQ1h23KcgXYsyoNGcWd0DclVFvVSUh4BCzKJ7zRoNSJiOgSXL+WTzAkElHdGeNw2+z5mH5jIdb9fjzue3wBtpwqVWdVnt6IJZssGP3sTIwfMgCDx07DtBEm7Np0Ekkjx6J/ezPQvAdGjR+PUT1i1HXci0J3N8t73v5X1eHL9ItH8PiogRh091Q8dosF+w41x6Tp9+NmJWw99OgIxJ7IxEG3p09GY/Az8zD7weG4qc9AjH54NDrnHsCBHyPd1uXSClB5/WOYOWEo+g8eh8cn94Ft324cU96qyuzNWLk5CCNmz8Hk2wdh4IjfYM4j3RHk+AZUb/tZkjASU+4OwSfLNiNr/yqkZSZjwsQ+iNRWJSK6rBgSiah+zHHo/+g8rHzzJfwqJhOvTHkKSw+WoPDbQzhjKMKehTMwfdo0pZuJtD25yP/+LAouwyl3l95+M7RNaA6t3SwYUc0jENEuFe0cjWzG8GhEmGwoKXdXGSMqf/gC7y54FtMenYTxv12CQ2Vyv1hfKx6GhJTWSi001pYtEVZejFK7th/ZYd3QO8HimAtYWicjzlFP7/sZjORRj2Fo4Vq8sGAvOj7yMPoyIRLRFcKQSEQ+Mcdch3vmvIIZ/fOxIX0rzsnVudYUDBkzFveOGaN2YydPw8xJvRHh5ghtfalX/3ravrpEEAxBtQsKMsiZNTrn4doqTq3F7Cdfw6EWQ/DQjJex6O9T0MvltMP6UeqilK0LCqq58rmi3I4qUzDMzp++FXbYHRc3e91P2YgpFBHhQFEBEGp1Pg+RiOjychsSDQZmRyK6WGXBBeTWOhExFFHRIaiyV8DaLgHRudnIU8Jjr169HF0P3NClLcJk0aoqVFbU4zYvLsuHe9u+p/RXRzmHvsTJ2GGYMPpGdIpvidD80zjjOPyrqm/dvQhr3QaRFw5i/5ma203kHv4vTmhH7b3vJ8qRtXY+1gXdjZm/bosdryzDviJtPSIif7jLfu5Dostf40REouLMWjzzwFQ8/9oqvP/BOqycPxPPv1+MHsP6oFXS7bi39zmkz56LtI+2Yef2j7H8hVn4x+58ZU0TromNRsn+TdiwZSM2Zv6kbdCji5c3et2+f8Li2iDs1Ea8+V4Gtn+yAn9ecgjm6rvZ1Lfu3pk73I67up3F2394EemfbkPG6r/guXV5iFGTNLzup+3oO5i/Grjj4dvQdeBkjIvbgUUr9oE5kYj85S77ub0Fzqg77+S9EonoIsbwNoiPKMX3WYdx+MR52KO6YuTUpzGuR5TyAWNFYt+B6BpyGpk79+Lrk4WI6jkK99wUD6sRaJbQFfHlh7Fr73cI7tgb3Vu7XJFrz8G5XAMi2ndBamzIxcu3ifG8/aoC5BYaENm+Mzq21O7zUpR7ARVhCejSuRXk7L+qwgv4yR6CuA7dEB9e+8PQFNsdfZLK8M2uL3AwtxWGju6HGKMFLRK7ISnaWL+6x9guqkt53nnkG6OQ2CUVLS3h6NCvH+Jth7F799f4MbQXxo3pBatSy7iOSt0iwtzvZ18z9mccRHD/e3FPz+YwGcLRPjEK+SeOIT+qo1JPk1qWq/K8n5AXpJTdNRXK20pE5JbZbFb++P+g1i1wguLbt9euelZe5JGcnIwVy5ejsKhIXYCIiIiIrl4SBMOaNcMDEybg+PHj1SHR7eHm4OBgHnImIiIiagIk80n2c+U2JBqN8g0KJjVZEhEREdHVSbKeZD7Jfq7chkQ5Lh0SEqIegiYiIiKiq5SS9STzSfZz5bElURaWZMkLWIiIiIiuPpLxJOtJ5vPQkiinJyqcTkGUhZ1bE3nYmYiIiOjqoWY7p1ZE6Vy5bUmUGyrKCYyyosVigd1ec9NXIiIiImrcJNtJxpOsp16wXNebaeuHm2Ul2YDZZEKZzeaYS0RERESNlWQ6yXaS8STrSear84UrkiZlYb0lsVmzZuo4gyIRERFR4yVZTjKdZDu9JVHG69ySqN5AUVlYTmaUlaULCwtTp5WUlGhfQE9EREREjYJkN8lwkuUk0+n5TrKeTHP3BSpuQ6LQQ6J+yDk0NBTh4eEINpthKy1FeXmtb/knIiIiop8hyWyS3STDSZaTTKcfatZDojsuUx1XOsuQS2uibMxqtSIiIkLdeIXdjpLiYl7UQkRERPQzJBlNsppkNslukuEky+mHmT22Isqo0hnUyS7zdHpQ1G+HIwXoQVE6mV5eVobioiLYeL4iERERUcBJJpNsJhlNspqe2yTDSZaTTCfTXQOilg1rxrWWRMdtEGWyvaIC586d0yYoXIOiFCAnO8rx7KioKLXZUqZXVVaisKAARYWFKFZSa5lSMWne5PmLRERERJef3OtQWgslc0n2kgwmWUwymWQzyWiS1SSzSXaTDOcpIEr2s9trf4FKUPuEBKUMuWG2Mqa8tGrVCvPmz8ON/fppSzhoy1SpoU8qJJ2EQOdOD4ZyB2+9IyIiIqIrR65O1jsJgPptbZw7ObTsfHjZOSCKHZ9/jieeeAI/nP1BWgjlWRMSpTVR+tdEX4MnlYUmTpzoWK02PShKXw+LMq6HQ31cD4gMikRERERXhgRDvS8BUIKgHhb1cen0I8Ou4VC3bNkyzJs3Hzk5OdoyEhS1kKjMVV7kYTaZkZSUhKVLl6Bt27bamm7ISnpglCAofddO2zARERERXSl6AHTt9OAo8z2FQ5GdnY1Jkx5EVlYWyu3l2nmJWkhMVLKcmhK1UKc8IyMjMXzEcLz04ova2l7oQVD6zp2ERCIiIiK68pzDoHMo9BYOdb+bMQMb1m9AXl6esoK2jvqQkKgFREfgk5CnPFrHtcagQYMwdeoUry2KztT1XbibRkRERET+cxcC6xIMhbQgLlz4KjL+nYGzZ89KHNTWlZAovQRpSXSERD0g6rkuMjJCvZDl/vvuQ4cOHZCSkoIWLVpoM4mIiIioUZGrmI8cOYKjR49iZXq6Gg7z8/K1mRIMtaZENSwGJSTK4Wa9xe/isGg2mxAeFo7gkGBYQiwwGg3KHHVRL7zO9MrnNX0v0g8NX2jj2s2A1LbBNZF/eoqm8fMMjLr91d/oBWA3m8g7q/BxT5vMz6ThS5WWuIbnpVBllsyV29zYbKWwlZWhsLAQ5eV2rdVQXcDRgqgPJyQmqWlQC4XKLwF5Osa1p9N07aW674k631c+rhqIMv3hc319rqvvOxmAt6dx/Uwamyaym3QJ8tuCPFJ/STY0P4r0fdXGs5+B+JnU9bDtZeVHkV7fI2VWdfirHtb62iFmfVrNfJeQKFuRvjKgPmsPX9T3QF2noflRpLd98Sogu9kE6uqPABTpj4C8R0QBov4Cagp83E3/3p2AFOqTgPw78Pnt8aOuP7My1e2qT+e+8uo8Tcb16bJOohIS1V9U8lSHnIcVztPkoU1Un5441vSNj6s2lTJ95VddfRWAIv0ptJFVl66QQPxf0T6OyaMAvD3+Fenj2o3on0FA/s36UaTP9b2aylRnKUsofXW56r7zNG1YHZPhxCQlJMpnoiMMOg9rz5q+a6uiJ+r8huZHkT7XNyC72QTq6o8AFOlPoQGpblPRmN5c9UP56heY3QxAqQEpsoEL9aO4Bq+r8LFIv+oaiDK9kdCn9pRX9SkvjtIc47XnBeH/iKnuCLgVIasAAAAASUVORK5CYII=;" vertex="1" parent="1">
          <mxGeometry x="1298" y="210" width="649" height="522" as="geometry" />
        </mxCell>
      </root>
    </mxGraphModel>
  </diagram>
</mxfile>
